<?xml version="1.0" encoding="utf-8"?>
<!-- Generator: Adobe Illustrator 27.1.1, SVG Export Plug-In . SVG Version: 6.00 Build 0)  -->
<svg version="1.1" id="Layer_1" xmlns="http://www.w3.org/2000/svg" xmlns:xlink="http://www.w3.org/1999/xlink" x="0px" y="0px"
	 viewBox="0 0 260 260" style="enable-background:new 0 0 260 260;" xml:space="preserve">
<style type="text/css">
	.st0{clip-path:url(#SVGID_00000123437476650451654860000017866202477509021313_);}
	.st1{fill:#FBB617;}
	.st2{fill:#2FA5DE;}
	.st3{fill:#231F20;}
	.st4{fill:#CE0E2D;}
</style>
<g>
	<g>
		<defs>
			<rect id="SVGID_1_" x="67" y="43.1" width="125" height="171.5"/>
		</defs>
		<clipPath id="SVGID_00000029725215141603011560000000740945892330863804_">
			<use xlink:href="#SVGID_1_"  style="overflow:visible;"/>
		</clipPath>
		<g style="clip-path:url(#SVGID_00000029725215141603011560000000740945892330863804_);">
			<path class="st1" d="M188.6,173.2L71.8,193.4c-2.2,0.4-4.4-1.1-4.7-3.4c0-0.2-0.1-0.4-0.1-0.6v-122c0-2,1.4-3.7,3.4-4l116.8-20.2
				c2.2-0.4,4.3,1.1,4.7,3.3c0,0.2,0.1,0.4,0.1,0.7v122C192,171.1,190.6,172.8,188.6,173.2L188.6,173.2z"/>
		</g>
	</g>
	<path d="M110,140.6c0,3.5,1.6,5.1,4.1,4.8s4-2.4,4-5.9v-34.9l9.7-1.6v37.6c0.1,9.2-5.5,17.4-14.8,18.7l-0.6,0.1
		c-10.3,1.4-15.9-5.9-15.9-16.9l-0.1-30.5c0-2.3,1.6-4.2,3.9-4.6l9.8-1.5L110,140.6L110,140.6z"/>
	<path d="M146.4,112.5c3-0.4,4.4,1.3,4.4,5.6v2.1c0,3.4-1.5,6-4.3,6.6l-1.4,0.2v-14.3L146.4,112.5L146.4,112.5z M175.6,53.2L80,70.6
		c-3.4,0.6-5.8,3.6-5.8,7v99.6c0,3.9,3.2,7.1,7.2,7.1c0.4,0,0.8,0,1.2-0.1l57.4-10.1c3.4-0.6,5.9-3.5,5.9-7v-28.6l3.6-0.5
		c8.8-1.3,13.7-9.6,13.6-20.6c-0.1-12.1-5.1-19-13.9-17.7l-16.4,2.5v60.1L87,170.6V82.5l84.2-15.7v73.5l-10.5-1.2
		c-2-0.2-3.9,1.2-4.1,3.2c0,0.1,0,0.3,0,0.4v28.8l9.9-18.8l13.5,1.6c2,0.2,3.8-1.2,4-3.2c0-0.1,0-0.3,0-0.4V60.2
		c0-3.9-3.2-7.1-7.1-7.1C176.5,53.1,176,53.1,175.6,53.2L175.6,53.2z"/>
	<path d="M102.1,92.4v-2.5c0.1-0.5-0.3-0.9-0.8-1c-0.1,0-0.2,0-0.2,0c-0.6,0.2-1,0.7-1,1.3V99c0,0.5,0.3,0.9,0.8,0.9
		c0.1,0,0.1,0,0.2,0c0.6-0.1,1-0.7,1-1.3v-2.5l2.7-0.5v2.9c0,2.4-1.7,4.6-4.1,5h-0.2c-2.8,0.5-4.3-1.5-4.3-4.2v-8.7
		c0.1-2.5,1.8-4.6,4.3-5.1h0.1c3-0.6,4.1,1.8,4.1,4.2V92L102.1,92.4L102.1,92.4z"/>
	<path d="M114,101l-2.6,0.4v-7.1l-1.5,0.3v7l-3.8,0.7V85.9c0-0.7,0.5-1.3,1.1-1.4l2.6-0.5v7.1l1.5-0.3v-7.1l3.8-0.7v16.6
		C115.2,100.3,114.7,100.9,114,101z"/>
	<path d="M119.8,91.5l-0.5,4.4l1.3-0.2l-0.5-4.2C120,91.4,119.9,91.4,119.8,91.5C119.8,91.4,119.8,91.4,119.8,91.5L119.8,91.5z
		 M121.1,99.8l-0.2-1.9l-1.9,0.3l-0.2,2l-2.7,0.4l2.3-18.2l3.4-0.6l2.9,17.4C124.8,99.1,121.1,99.8,121.1,99.8z"/>
	<path d="M129.3,87.4c0.8-0.2,1.3-1,1.2-1.8v-0.6c0-1.1-0.4-1.6-1.2-1.4l-0.4,0.1v3.8L129.3,87.4L129.3,87.4z M125.4,81.1l4.7-0.9
		c2.5-0.5,3.9,1.3,3.9,3.8c0,2.6-0.5,3.4-1.6,4.1v0.1c1.1,0.3,1.8,1.3,1.7,2.4c-0.1,3.7-0.1,4,0,4.7c0.1,0.8,0.2,1.5,0.4,2.3
		l-3.5,0.6c-0.4-0.8-0.5-1.6-0.5-2.4v-4.4c0-0.6-0.3-0.9-0.8-0.8l-0.7,0.1v7.8l-3.6,0.6V81.1L125.4,81.1z"/>
	<path d="M144,95.9l-1.9,0.3l-0.4-0.7c-0.6,0.8-1.5,1.3-2.5,1.5c-1.4,0.2-4-0.3-4-5.6v-7c0-4,2.6-6,4.4-6.4h0.2
		c2.2-0.4,3.9,1.8,3.9,4.1v2.3l-2.6,0.5v-2c0.1-0.6-0.4-1.1-1-1.2c-0.1,0-0.2,0-0.2,0c-0.7,0.2-1.2,0.9-1.2,1.6v9.1
		c0,0.5,0.3,0.9,0.8,0.9c0,0,0.1,0,0.1,0c0.5-0.1,0.9-0.6,0.9-1.2v-1.7l-0.9,0.2v-3.1l4.3-0.8V95.9L144,95.9z"/>
	<path d="M149,84.2l2.7-0.4v3.4l-2.6,0.4v3.7l3.7-0.6v3.8l-5.9,1c-0.7,0.1-1.4-0.4-1.5-1.1c0-0.1,0-0.1,0-0.2l-0.1-15.8
		c0-0.6,0.4-1.1,1-1.2l6.4-1.2v3.9l-3.7,0.7v3.8L149,84.2z"/>
	<path d="M157.5,90.2c0.8-0.1,1.6-0.6,1.6-1.5l-0.1-9.1c0-1.2-0.7-1.2-1.7-1L157.5,90.2L157.5,90.2z M162.7,86.8
		c0.1,4.1-2.3,6.3-4.5,6.7l-4.2,0.7l-0.1-18.6l5-1c1.9-0.4,3.7,1,3.7,5.1L162.7,86.8L162.7,86.8z"/>
	<path d="M167.3,165.7l0.6-0.9c0.4,0.3,0.9,0.4,1.3,0.3c0.4-0.1,0.6-0.3,0.6-0.6l0,0c0-0.3-0.1-0.4-0.9-0.4
		c-0.9-0.1-1.5-0.2-1.5-1.2l0,0c0-0.9,0.7-1.7,1.6-1.8c0.6-0.2,1.2-0.1,1.6,0.2l-0.5,0.9c-0.3-0.2-0.8-0.3-1.2-0.3
		c-0.4,0.1-0.6,0.3-0.6,0.6l0,0c0,0.3,0.2,0.4,1,0.4s1.4,0.3,1.4,1.2l0,0c0,0.9-0.7,1.7-1.6,1.9C168.5,166.2,167.9,166,167.3,165.7
		L167.3,165.7z"/>
	<polygon points="171.7,160.5 172.7,160.2 173.9,162.2 175.1,159.7 176.1,159.4 176.1,164.8 175.1,164.9 175.2,161.5 173.9,164 
		173.9,164 172.6,162.1 172.6,165.4 171.7,165.6 171.7,160.5 	"/>
	<path class="st2" d="M84.6,178.1c-1.6,0-3.1-0.7-4-2c-0.6-0.9-0.9-1.9-0.9-3V80.6c0-2.4,1.7-4.4,4-4.8l89.6-16.6
		c1.9-0.4,3.9,0.5,4.9,2.1c0.6,0.8,0.8,1.8,0.8,2.8v84.3c0,0.6-0.5,1.1-1.1,1.1c-0.1,0-0.1,0-0.2,0l-14.8-1.9l-2.5,6.9l1.1-8.6
		c0.1-0.6,0.7-1.1,1.4-1l13.6,1.8V64.2c0-0.6-0.2-1.1-0.5-1.6c-0.5-0.6-1.4-0.9-2.2-0.8L84.2,78.3c-1.1,0.2-1.9,1.2-1.9,2.3v92.5
		c0,0.5,0.1,0.9,0.4,1.3c0.5,0.8,1.4,1.2,2.3,1c0,0,41.3-5.8,41.1-5.8L85.4,178C85.1,178,84.9,178.1,84.6,178.1L84.6,178.1z"/>
	<path d="M75.6,201.1h-0.8v1.3h0.8c0.3,0,0.6-0.2,0.7-0.5c0,0,0-0.1,0-0.1C76.3,201.4,76,201.1,75.6,201.1
		C75.7,201.1,75.7,201.1,75.6,201.1 M75.6,203.2h-0.9v1.7h-0.9v-4.6h1.8c0.8-0.1,1.5,0.5,1.6,1.3s-0.5,1.5-1.3,1.6
		C75.8,203.2,75.7,203.2,75.6,203.2"/>
	<path d="M80,201.1h-0.8v1.2H80c0.3,0,0.6-0.3,0.6-0.6S80.3,201.1,80,201.1L80,201.1 M80.7,204.9l-0.9-1.8h-0.7v1.8h-0.9v-4.6h1.8
		c0.8-0.1,1.4,0.5,1.5,1.3c0,0,0,0.1,0,0.1c0,0.5-0.3,1-0.8,1.2l1,2L80.7,204.9z"/>
	<polygon points="82.8,204.9 82.8,200.3 85.9,200.3 85.9,201.1 83.7,201.1 83.7,202.2 85.6,202.2 85.6,203 83.7,203 83.7,204.1 
		85.9,204.1 85.9,204.9 82.8,204.9 	"/>
	<path d="M88.4,204.9c-0.6,0-1.2-0.2-1.7-0.6l0.6-0.6c0.3,0.3,0.7,0.4,1.1,0.4c0.5,0,0.8-0.2,0.8-0.6c0-0.1,0-0.3-0.1-0.4
		c-0.1-0.1-0.3-0.2-0.4-0.2l-0.6-0.1c-0.3,0-0.6-0.2-0.9-0.4c-0.2-0.2-0.4-0.6-0.3-0.9c0-0.8,0.6-1.4,1.4-1.4c0.1,0,0.1,0,0.2,0
		c0.6,0,1.1,0.2,1.5,0.5l-0.6,0.6c-0.3-0.2-0.6-0.3-0.9-0.3c-0.5,0-0.7,0.3-0.7,0.6c0,0.1,0,0.2,0.1,0.3c0.1,0.1,0.3,0.2,0.4,0.2
		l0.5,0.1c0.3,0,0.6,0.1,0.9,0.4c0.3,0.3,0.4,0.6,0.4,1C90.1,204.4,89.3,205,88.4,204.9"/>
	<polygon points="91.2,204.9 91.2,200.3 94.3,200.3 94.3,201.1 92.2,201.1 92.2,202.2 94,202.2 94,203 92.2,203 92.2,204.1 
		94.3,204.1 94.3,204.9 91.2,204.9 	"/>
	<polygon points="98.2,204.9 96.4,202.1 96.4,204.9 95.5,204.9 95.5,200.3 96.3,200.3 98.1,203.1 98.1,200.3 99,200.3 99,204.9 
		98.2,204.9 	"/>
	<polygon points="102.2,201.1 102.2,204.9 101.3,204.9 101.3,201.1 100.1,201.1 100.1,200.3 103.4,200.3 103.4,201.1 102.2,201.1 	
		"/>
	<polygon points="104.4,204.9 104.4,200.3 107.5,200.3 107.5,201.1 105.3,201.1 105.3,202.2 107.2,202.2 107.2,203 105.3,203 
		105.3,204.1 107.5,204.1 107.5,204.9 104.4,204.9 	"/>
	<path d="M111,201.4c-0.2-0.2-0.4-0.3-0.7-0.3h-0.7v3h0.7c0.3,0,0.5-0.1,0.7-0.3c0.2-0.2,0.2-0.5,0.2-1.2S111.2,201.6,111,201.4
		 M111.6,204.5c-0.3,0.3-0.8,0.5-1.2,0.4h-1.7v-4.6h1.7c0.4,0,0.9,0.1,1.2,0.4c0.4,0.5,0.6,1.2,0.5,1.9
		C112.2,203.2,112,203.9,111.6,204.5"/>
	<path d="M117,203h-1v1.1h1c0.3,0,0.6-0.3,0.6-0.6C117.6,203.3,117.3,203,117,203C117,203,117,203,117,203 M116.9,201.1H116v1.1h0.9
		c0.3,0,0.5-0.2,0.5-0.5C117.4,201.4,117.2,201.1,116.9,201.1C116.9,201.1,116.9,201.1,116.9,201.1 M117,204.9h-1.9v-4.6h1.9
		c0.7-0.1,1.3,0.4,1.4,1.1c0,0.1,0,0.1,0,0.2c0,0.4-0.2,0.8-0.6,1c0.4,0.2,0.6,0.6,0.6,1c0,0.7-0.5,1.3-1.2,1.3
		C117.2,205,117.1,205,117,204.9"/>
	<polygon points="121.5,203 121.5,204.9 120.6,204.9 120.6,203 119.2,200.3 120.2,200.3 121,202.1 121.9,200.3 122.9,200.3 
		121.5,203 	"/>
	<path class="st3" d="M132,212.7c0,0.9,0.2,1.5,0.9,1.5c0.3,0,0.5-0.1,0.6-0.4v-0.6h-0.5v-0.4h1.6v0.4h-0.3v1.4h-0.4
		c0-0.1-0.1-0.2-0.2-0.2c-0.3,0.1-0.7,0.2-1,0.2c-1,0-1.7-0.6-1.7-1.9c-0.1-1,0.5-1.9,1.5-2c0.1,0,0.2,0,0.3,0
		c0.3,0,0.6,0.1,0.9,0.2c0.1,0,0.1-0.1,0.1-0.2h0.4v1.2h-0.4c-0.2-0.6-0.4-0.9-1-0.9S131.9,211.7,132,212.7L132,212.7z"/>
	<path class="st3" d="M136.6,213L136.6,213c0-0.6-0.1-0.8-0.3-0.8s-0.4,0.4-0.4,0.8H136.6z M136.2,211.9c0.6-0.1,1.1,0.4,1.2,1
		c0,0.1,0,0.1,0,0.2c0,0.1,0,0.2,0,0.3h-1.6c0,0.5,0.1,0.9,0.6,0.9c0.3,0,0.5-0.2,0.6-0.5l0.4,0.1c-0.1,0.5-0.6,0.8-1.1,0.8
		c-0.7,0.1-1.3-0.5-1.3-1.1c0-0.1,0-0.1,0-0.2c-0.1-0.7,0.4-1.4,1.2-1.4C136.1,211.8,136.2,211.8,136.2,211.9L136.2,211.9z"/>
	<path class="st3" d="M138.8,211.9v0.5l0,0c0.1-0.4,0.5-0.6,0.9-0.6c0.5,0,0.8,0.2,0.8,0.9v1.5h0.3v0.4h-1.3v-0.4h0.2v-1.4
		c0-0.3,0-0.5-0.3-0.5s-0.5,0.2-0.5,0.6v1.2h0.3v0.4h-1.4v-0.4h0.3v-1.9h-0.3v-0.4L138.8,211.9L138.8,211.9z"/>
	<path class="st3" d="M142.8,213L142.8,213c0-0.6-0.1-0.8-0.3-0.8s-0.4,0.4-0.4,0.8H142.8z M142.5,211.9c0.6-0.1,1.1,0.4,1.2,1
		c0,0.1,0,0.1,0,0.2c0,0.1,0,0.2,0,0.3h-1.6c0,0.5,0.1,0.9,0.6,0.9c0.3,0,0.5-0.2,0.6-0.5l0.4,0.1c-0.1,0.5-0.6,0.8-1.1,0.8
		c-0.7,0.1-1.3-0.5-1.3-1.1c0-0.1,0-0.1,0-0.2c-0.1-0.7,0.4-1.4,1.2-1.4C142.4,211.9,142.5,211.9,142.5,211.9L142.5,211.9z"/>
	<polygon class="st3" points="146.2,212.4 147.5,212.4 147.5,211.3 147.2,211.2 147.2,210.8 148.8,210.8 148.8,211.2 148.4,211.3 
		148.4,214.1 148.8,214.2 148.8,214.6 147.2,214.6 147.2,214.2 147.5,214.1 147.5,212.9 146.2,212.9 146.2,214.1 146.6,214.2 
		146.6,214.6 145,214.6 145,214.2 145.3,214.1 145.3,211.3 145,211.2 145,210.8 146.6,210.8 146.6,211.2 146.2,211.3 146.2,212.4 	
		"/>
	<path class="st3" d="M150.6,213.8v-0.3h-0.2c-0.3,0-0.4,0.1-0.4,0.4s0.1,0.4,0.3,0.4S150.6,214.1,150.6,213.8z M150.6,213.2v-0.4
		c0-0.4-0.1-0.6-0.5-0.6c-0.2,0-0.3,0-0.3,0.2s0,0.1,0,0.1h0.2c0,0.1,0,0.1,0,0.2c0,0.2-0.2,0.4-0.4,0.4c0,0,0,0-0.1,0
		c-0.2,0-0.4-0.1-0.4-0.3c0,0,0,0,0-0.1c0-0.4,0.4-0.7,1.1-0.7s1.1,0.2,1.1,1v1.2c0,0.2,0,0.3,0.1,0.3c0.1,0,0.1,0,0.2-0.1l0.1,0.3
		c-0.2,0.1-0.4,0.2-0.6,0.2c-0.3,0-0.5-0.1-0.6-0.4c-0.2,0.3-0.4,0.4-0.8,0.4c-0.4,0-0.8-0.2-0.8-0.7s0.4-0.8,1.1-0.8L150.6,213.2z"
		/>
	<path class="st3" d="M153.6,213.8v-0.3h-0.2c-0.3,0-0.4,0.1-0.4,0.4s0.1,0.4,0.3,0.4S153.6,214.1,153.6,213.8z M153.6,213.2v-0.4
		c0-0.4-0.1-0.6-0.5-0.6c-0.2,0-0.3,0-0.3,0.2s0,0.1,0,0.1h0.2c0,0.1,0,0.1,0,0.2c0,0.2-0.2,0.4-0.4,0.4c0,0,0,0-0.1,0
		c-0.2,0-0.4-0.1-0.4-0.3c0,0,0,0,0-0.1c0-0.4,0.4-0.7,1.1-0.7s1.1,0.2,1.1,1v1.2c0,0.2,0,0.3,0.1,0.3c0.1,0,0.1,0,0.2-0.1l0.1,0.3
		c-0.2,0.1-0.4,0.2-0.6,0.2c-0.3,0-0.5-0.1-0.6-0.4c-0.2,0.3-0.4,0.4-0.8,0.4c-0.4,0-0.8-0.2-0.8-0.7s0.4-0.8,1.1-0.8L153.6,213.2z"
		/>
	<path class="st3" d="M155,213.7h0.3c0.1,0.4,0.4,0.6,0.8,0.6c0.3,0,0.4-0.1,0.4-0.3s-0.2-0.3-0.5-0.3c-0.4-0.1-1-0.2-1-0.9
		c0-0.5,0.4-0.9,0.9-0.9c0,0,0.1,0,0.1,0c0.2,0,0.4,0,0.5,0.1c0,0,0.1,0,0.1,0c0.1,0,0.1,0,0.1-0.1h0.2v0.8h-0.3
		c-0.1-0.3-0.4-0.5-0.7-0.5c-0.2,0-0.4,0.1-0.4,0.3s0.2,0.3,0.5,0.3c0.4,0.1,1,0.2,1,0.9c0,0.5-0.3,0.9-0.8,0.9c-0.1,0-0.1,0-0.2,0
		c-0.2,0-0.5-0.1-0.7-0.2h-0.1c-0.1,0-0.1,0-0.1,0.2H155V213.7L155,213.7z"/>
	<path class="st3" d="M161.2,210.8l0.1,1h-0.1c-0.1-0.6-0.3-0.8-0.9-0.8h-0.6v1.6h0.3c0.5,0,0.6-0.2,0.7-0.7h0.1v1.6h-0.1
		c-0.1-0.6-0.2-0.7-0.7-0.7h-0.3v1.6h0.7v0.2h-1.6v-0.2h0.5V211h-0.5v-0.2L161.2,210.8z"/>
	<path class="st3" d="M162.7,212.1c-0.6,0-0.7,0.6-0.7,1.1s0.1,1.2,0.7,1.2s0.7-0.6,0.7-1.1S163.3,212.1,162.7,212.1z M162.7,211.9
		c0.8,0,1.2,0.6,1.2,1.4s-0.5,1.4-1.2,1.4s-1.2-0.6-1.2-1.4c-0.1-0.7,0.4-1.3,1.1-1.4C162.6,211.9,162.7,211.9,162.7,211.9z"/>
	<path class="st3" d="M165,213.8c0,0.4,0.1,0.6,0.6,0.6c0.4,0,0.7-0.3,0.8-0.7c0,0,0-0.1,0-0.1v-1.4h-0.4V212h0.8v2.5h0.4v0.2h-0.7
		v-0.4c-0.2,0.3-0.5,0.5-0.9,0.5c-0.6,0-0.8-0.3-0.8-0.9v-1.6h-0.4V212h0.8L165,213.8L165,213.8z"/>
	<path class="st3" d="M168.2,211.9v0.5c0.2-0.3,0.6-0.5,0.9-0.5c0.6,0,0.8,0.3,0.8,0.9v1.6h0.4v0.2h-1.1v-0.2h0.4v-1.6
		c0-0.4-0.1-0.6-0.6-0.6c-0.4,0-0.8,0.3-0.8,0.7c0,0,0,0,0,0v1.5h0.4v0.2h-1.1v-0.2h0.4v-2.2h-0.4V212L168.2,211.9L168.2,211.9z"/>
	<path class="st3" d="M172.6,213.6v-0.8c0-0.3-0.2-0.7-0.6-0.7c0,0-0.1,0-0.1,0c-0.6,0-0.8,0.4-0.8,1.1c0,0.5,0.1,1.1,0.7,1.1
		C172.2,214.4,172.6,214,172.6,213.6L172.6,213.6z M172.6,212.2v-1.4l-0.4-0.1v-0.2h0.8v3.8h0.4v0.2h-0.8v-0.4
		c-0.2,0.3-0.5,0.5-0.9,0.5c-0.7,0-1-0.5-1-1.3s0.5-1.4,1.1-1.4C172.2,211.8,172.5,212,172.6,212.2L172.6,212.2z"/>
	<path class="st3" d="M175.3,213.8v-0.4h-0.4c-0.5,0-0.7,0.2-0.7,0.5s0.1,0.5,0.5,0.5C175,214.4,175.3,214.2,175.3,213.8
		C175.3,213.8,175.3,213.8,175.3,213.8z M175.3,213.2v-0.4c0-0.5-0.1-0.8-0.6-0.8c-0.2,0-0.5,0-0.5,0.2c0,0,0,0.1,0,0.1h0.2
		c0,0.1,0,0.1,0,0.2c0,0.1-0.1,0.2-0.2,0.3c0,0,0,0,0,0c-0.1,0-0.3-0.1-0.3-0.2c0,0,0,0,0-0.1c0-0.4,0.4-0.7,0.9-0.7s0.9,0.3,0.9,1
		v1.2c0,0.2,0,0.3,0.2,0.3c0.1,0,0.1,0,0.2,0v0.2c-0.1,0-0.2,0.1-0.3,0.1c-0.2,0-0.4-0.1-0.5-0.3c0,0,0,0,0,0
		c-0.2,0.2-0.5,0.4-0.8,0.4c-0.4,0-0.8-0.2-0.8-0.7s0.5-0.8,1.1-0.8L175.3,213.2z"/>
	<path class="st3" d="M176.6,212.1h-0.4v-0.2h0.4v-0.7l0.3-0.1h0.1v0.8h0.6v0.2h-0.6v1.9c0,0.3,0.1,0.4,0.3,0.4s0.3-0.1,0.4-0.4
		l0.2,0.1c-0.1,0.4-0.3,0.6-0.6,0.6c-0.3,0-0.6-0.2-0.6-0.4c0,0,0-0.1,0-0.2V212.1L176.6,212.1z"/>
	<path class="st3" d="M178.7,210.7c0.1,0,0.3,0.1,0.3,0.2c0,0,0,0,0,0.1c0,0.1-0.1,0.3-0.2,0.3c0,0,0,0-0.1,0
		c-0.2,0-0.3-0.1-0.3-0.3C178.4,210.8,178.5,210.7,178.7,210.7C178.6,210.7,178.7,210.7,178.7,210.7L178.7,210.7z M178.9,211.9v2.5
		h0.4v0.2h-1.2v-0.2h0.4v-2.2h-0.4V212L178.9,211.9L178.9,211.9z"/>
	<path class="st3" d="M180.9,212.1c-0.6,0-0.7,0.6-0.7,1.1s0.1,1.2,0.8,1.2s0.7-0.6,0.7-1.1S181.5,212.1,180.9,212.1z M180.9,211.9
		c0.8,0,1.2,0.6,1.2,1.4s-0.5,1.4-1.2,1.4s-1.2-0.6-1.2-1.4c-0.1-0.7,0.4-1.3,1.1-1.4C180.8,211.9,180.9,211.9,180.9,211.9z"/>
	<path class="st3" d="M183.2,211.9v0.5c0.2-0.3,0.6-0.5,0.9-0.5c0.6,0,0.8,0.3,0.8,0.9v1.6h0.4v0.2h-1.1v-0.2h0.4v-1.6
		c0-0.4-0.1-0.6-0.6-0.6c-0.4,0-0.8,0.3-0.8,0.7c0,0,0,0,0,0v1.5h0.4v0.2h-1.1v-0.2h0.4v-2.2h-0.4V212L183.2,211.9L183.2,211.9z"/>
	<polygon class="st4" points="144.4,193.6 139.9,201.2 131,201.2 129.3,204.1 138.3,204.1 136.4,207.3 139.7,207.3 147.6,193.6 
		144.4,193.6 	"/>
	<polygon class="st4" points="151,193.6 146.5,201.2 144.1,201.2 142.5,204.1 144.9,204.1 143,207.3 146.3,207.3 154.2,193.6 
		151,193.6 	"/>
	<polygon class="st4" points="155.8,193.6 147.9,207.3 151.1,207.3 159.1,193.6 155.8,193.6 	"/>
	<polygon class="st4" points="165.2,193.6 159.5,203.5 159.5,194.3 156.8,199.1 156.8,201.2 155.5,201.2 153.9,204.1 156.8,204.1 
		156.8,207.3 160.6,207.3 168.5,193.6 165.2,193.6 	"/>
	<path class="st4" d="M176.6,196.5h8.9l1.7-2.9h-11.9c-0.6,0-1.1,0.3-1.4,0.8l-3.2,5.5c-0.3,0.6-0.1,1.3,0.5,1.7
		c0.2,0.1,0.4,0.2,0.6,0.2h4.3l-1.4,2.4c-0.1,0.2-0.4,0.4-0.6,0.4h-4.9v-10.1l-2.8,4.7v2.2H165l-1.6,2.8h2.9v3.2h8.9
		c0.6,0,1.1-0.3,1.4-0.8l3.4-5.8c0.3-0.6,0.1-1.3-0.4-1.7c-0.2-0.1-0.4-0.2-0.6-0.2h-4.1l1.2-2C176.1,196.7,176.3,196.5,176.6,196.5
		L176.6,196.5z"/>
</g>
</svg>
