<svg xmlns="http://www.w3.org/2000/svg" xmlns:xlink="http://www.w3.org/1999/xlink" viewBox="0 0 85.51 87.03"><defs><style>.cls-1{fill:none;}.cls-2{fill:url(#linear-gradient);}.cls-3{fill:#003a5d;}.cls-4{fill:#00c0dd;}.cls-5{fill:#005cb8;}.cls-6{fill:url(#linear-gradient-2);}.cls-7{clip-path:url(#clip-path);}.cls-8{fill:url(#radial-gradient);}</style><linearGradient id="linear-gradient" x1="41.25" y1="63.57" x2="41.25" y2="42.12" gradientUnits="userSpaceOnUse"><stop offset="0" stop-color="#fff041"/><stop offset="1" stop-color="#fab74f"/></linearGradient><linearGradient id="linear-gradient-2" x1="41.21" y1="68.85" x2="41.21" y2="72.6" gradientUnits="userSpaceOnUse"><stop offset="0.07" stop-color="#00c0dd"/><stop offset="0.16" stop-color="#00c0dd" stop-opacity="0.8"/><stop offset="0.26" stop-color="#00c0dd" stop-opacity="0.59"/><stop offset="0.37" stop-color="#00c0dd" stop-opacity="0.41"/><stop offset="0.49" stop-color="#00c0dd" stop-opacity="0.26"/><stop offset="0.6" stop-color="#00c0dd" stop-opacity="0.14"/><stop offset="0.73" stop-color="#00c0dd" stop-opacity="0.06"/><stop offset="0.85" stop-color="#00c0dd" stop-opacity="0.02"/><stop offset="1" stop-color="#00c0dd" stop-opacity="0"/></linearGradient><clipPath id="clip-path"><path class="cls-1" d="M51.48,53l-4.32,6.13-.59-2.8L45.83,61l-1.2,1.71V60.1H43.38v.39h0v-.42l-1,1.82v2l.3,0-.28.37,0,.21a4,4,0,0,0-1.25-.21,3.81,3.81,0,0,0-1.68.39l-.46-.8c-.08-1-.14-1.71-.14-1.71a.13.13,0,0,0,0-.07.1.1,0,0,0,.05-.08L38.79,61c0-.05-.06-.1-.15-.13v0h0c.12,0,.2-.09.21-.15a0,0,0,0,0,0,0c0-.08-.23-.21-.23-.23s0,0,0-.05a1.48,1.48,0,0,1,.2-.58.4.4,0,0,1,.1-.12c.09-.07.1-.27.1-.33l0-.05v-.07c0-.23-.12-1.82-.63-2.06v-.11h0s0,0-.1-.05,0-.58,0-.58h0s0,.44,0,.58-.1,0-.1.05h0a.59.59,0,0,1,0,.11c-.52.23-.62,1.83-.62,2.06v.07l0,.05c0,.06,0,.26.1.33a.41.41,0,0,1,.11.12,1.67,1.67,0,0,1,.2.58s0,0,0,.05-.23.15-.23.23a0,0,0,0,0,0,0c0,.06.09.11.21.15h0v0c-.09,0-.15.08-.15.13l-.07.45L37,60.3V54.73a2.4,2.4,0,0,0-1.82-2.32V49.53a.11.11,0,0,0-.1-.1.1.1,0,0,0-.1.1v2.84a2.22,2.22,0,0,0-.37,0,.57.57,0,0,0-.57.58v2.22L33.42,54,22.78,49.33,11.65,78.39,41.25,87l29.6-8.64L61.41,50.67Z"/></clipPath><radialGradient id="radial-gradient" cx="39.6" cy="178" r="64.07" gradientTransform="translate(33.66 34.2) scale(0.19 0.19)" xlink:href="#linear-gradient-2"/></defs><title>inginiterechargelogo</title><g id="Layer_2" data-name="Layer 2"><g id="Layer_1-2" data-name="Layer 1"><path d="M9.49,27.33V18.82a1.91,1.91,0,0,0-2.17-2.19H0v25l3-.88V30.11l2-.29,1.5,10,3.06-1L8,29.39C9,29.19,9.49,28.57,9.49,27.33Zm-3-.71c0,.22-.07.3-.29.32L3,27.46V19.08H6.21c.22,0,.29.06.29.29Z"/><polygon points="19.57 33.15 14.58 34.45 14.63 28.36 18.45 27.76 18.45 25.1 14.58 25.59 14.58 19.14 19.67 19.14 19.67 16.63 11.58 16.63 11.58 38.13 19.57 35.89 19.57 33.15"/><path d="M21.23,32.52c0,1.48.72,2.57,2.17,2.16l4.52-1.32c1.56-.47,2.17-.71,2.17-2.2V27l-3,.55,0,3.29c0,.23-.09.25-.32.33l-2.27.56c-.28.09-.29-.06-.29-.29l0-12c0-.23.07-.29.29-.29h2.36c.23,0,.29.06.29.29v3.23l3-.3V18.82c0-1.48-.67-2.19-2.14-2.19H23.44a1.94,1.94,0,0,0-2.21,2.19Z"/><polygon points="34.82 16.63 31.82 16.63 31.82 32.23 34.82 31.37 34.82 25.4 37.35 25.04 37.35 30.6 40.17 29.79 40.17 16.63 37.35 16.63 37.35 22.39 34.82 22.75 34.82 16.63"/><path d="M61.64,24.71V18.82a1.91,1.91,0,0,0-2.17-2.19H52.86v16.2l3,.85V26.42l1.31.26,1.37,7.82,3.27.92-1.69-8.33C61.14,26.88,61.64,26,61.64,24.71Zm-3-.83c0,.22-.07.29-.29.29l-2.49-.42V19.08h2.49c.22,0,.29.06.29.29Z"/><path d="M71,16.63h-5a1.91,1.91,0,0,0-2.17,2.19V34.49c0,1.48.64,1.72,2.2,2.16l5,1.45c1.68.5,2.17-.71,2.17-2.19V26.44l-4.61-.7v2.68l1.64.36v5.68c0,.22,0,.36-.29.29L67.06,34a.39.39,0,0,1-.29-.44V19.4c0-.23.06-.29.29-.29h2.82c.23,0,.29.06.29.29v4.08l3,.36v-5A1.91,1.91,0,0,0,71,16.63Z"/><polygon points="82.53 19.14 82.53 16.63 75.33 16.63 75.33 39.37 82.51 41.46 82.53 38.31 78.33 37.19 78.33 29.83 81.53 30.33 81.53 27.64 78.33 27.17 78.33 19.14 82.53 19.14"/><path d="M43.86,16.63h0a1.5,1.5,0,0,0-1.5,1.5V29.76l2.72.81V25l2.79.46v5.94l2.9.83V18.13a1.5,1.5,0,0,0-1.5-1.5Zm4,6.16-2.79-.46V19.19a.16.16,0,0,1,.16-.16l2.48.11a.16.16,0,0,1,.15.16Z"/><rect x="6.32" width="2.85" height="12.45"/><polygon points="14.16 5.17 18.67 12.45 21.32 12.45 21.32 0 18.55 0 18.55 6.89 14.3 0 11.4 0 11.4 12.45 14.16 12.45 14.16 5.17"/><polygon points="26.69 7.46 31.04 7.46 31.04 5.02 26.69 5.02 26.69 2.48 32.13 2.48 32.13 0 23.84 0 23.84 12.45 26.69 12.45 26.69 7.46"/><rect x="34.34" width="2.85" height="12.45"/><polygon points="42.33 5.17 46.84 12.45 49.48 12.45 49.48 0 46.72 0 46.72 6.89 42.47 0 39.56 0 39.56 12.45 42.33 12.45 42.33 5.17"/><rect x="52.16" width="2.85" height="12.45"/><polygon points="66.13 0 57 0 57 2.49 60.13 2.49 60.13 12.45 62.99 12.45 62.99 2.49 66.13 2.49 66.13 0"/><polygon points="76.22 9.97 70.78 9.97 70.78 7.31 75.13 7.31 75.13 4.87 70.78 4.87 70.78 2.48 76.22 2.48 76.22 0 67.93 0 67.93 12.45 76.22 12.45 76.22 9.97"/><path d="M83.28,41.48l.09-.12a.48.48,0,0,0,.36.17c.21,0,.28-.11.28-.2,0-.3-.69-.13-.69-.55,0-.19.17-.32.4-.32a.55.55,0,0,1,.41.16l-.09.11a.42.42,0,0,0-.33-.14c-.14,0-.24.08-.24.19s.69.11.69.54c0,.17-.12.34-.43.34A.62.62,0,0,1,83.28,41.48Z"/><path d="M85.36,41.64v-1l-.39,1h-.06l-.39-1v1h-.15V40.48h.21l.36.89.36-.89h.21v1.16Z"/><polygon class="cls-2" points="70.85 78.39 70.85 51.07 41.25 42.41 11.65 51.04 11.65 78.39 41.25 78.06 70.85 78.39"/><polygon class="cls-1" points="12.8 78.73 30.88 84 12.81 78.73 12.8 78.73"/><path class="cls-1" d="M11.82,55.46l.42-.17h0a6,6,0,0,1,.83-.24,8.23,8.23,0,0,1,1.31-.16v-2.2l.28,0v2.24a6.73,6.73,0,0,1,1.35.16l.13,0V51.16l1.95-.54V49.16L11.65,51v4.5l.13-.06Z"/><path class="cls-1" d="M33.42,54l.66,1.14V52.92a.57.57,0,0,1,.57-.58,2.22,2.22,0,0,1,.37,0V49.53a.1.1,0,0,1,.1-.1.11.11,0,0,1,.1.1v2.88A2.4,2.4,0,0,1,37,54.73V60.3l.68,1.18.07-.45c0-.05.06-.1.15-.13v0h0c-.12,0-.2-.09-.21-.15a0,0,0,0,1,0,0c0-.08.23-.21.23-.23s0,0,0-.05a1.67,1.67,0,0,0-.2-.58.41.41,0,0,0-.11-.12c-.08-.07-.09-.27-.1-.33l0-.05v-.07c0-.23.1-1.83.62-2.06a.59.59,0,0,0,0-.11h0s0,0,.1-.05,0-.58,0-.58h0s0,.44,0,.58.1,0,.1.05h0v.11c.51.24.63,1.83.63,2.06v.07l0,.05c0,.06,0,.26-.1.33a.4.4,0,0,0-.1.12,1.48,1.48,0,0,0-.2.58s0,0,0,.05.23.15.23.23a0,0,0,0,1,0,0c0,.06-.09.11-.21.15h0v0c.09,0,.15.08.15.13l.13.88a.1.1,0,0,1-.05.08.13.13,0,0,1,0,.07s.06.75.14,1.71l.46.8a3.81,3.81,0,0,1,1.68-.39,4,4,0,0,1,1.25.21l0-.21.28-.37-.3,0v-2l1-1.82v.42h0V60.1h1.25v2.57L45.83,61l.74-4.68.59,2.8.43-.62V52l1.19-2.16V46.27a.09.09,0,0,1,.1-.09.1.1,0,0,1,.1.09v3.17l.39-.72V47.11a.1.1,0,0,1,.1-.1.11.11,0,0,1,.1.1v1.25l.6-1.1h0l2.92.92V45.86L41.25,42.41l-10.34,3,2.51,5.36Z"/><polygon class="cls-1" points="69.73 50.72 69.73 50.74 70.85 51.07 70.85 51.04 69.73 50.72"/><polygon class="cls-3" points="53.09 45.86 53.09 48.18 53.09 49.58 53.09 71.96 55.19 72.74 55.19 72.73 55.19 50.24 55.19 48.84 55.19 46.48 55.19 41.48 55.19 41.41 53.09 44.99 53.09 45.86"/><path class="cls-3" d="M29.93,43.35V71.73l3.49-1.27V50.78l-2.51-5.36Zm2.78,7.86.3.57v1.55l-.3-.51Zm0,3,.3.46v1.17l-.3-.43Zm0,2.27.3.39v.91l-.3-.35Zm0,1.81.3.32v.75l-.3-.29Zm0,1.49.3.27v.64l-.3-.25Zm0,1.27.3.23v.55l-.3-.2Zm0,1.12.3.18v.5l-.3-.18Zm0,1,.3.15v.45l-.3-.14Zm0,.91.3.12v.41l-.3-.1Zm0,.84L33,65v.39l-.3-.07Zm0,.8.3.07v.37l-.3-.05Zm0,.77.3,0v.36l-.3,0Zm0,.75H33v.36h-.3Zm0,.74H33v.36l-.3,0Zm0,.76.3,0v.36l-.3.06Zm0,.76.3-.06v.38l-.3.08Zm-.79-19.8.3.57V52l-.3-.52Zm0,3.28.3.46v1.28l-.3-.42Zm0,2.48.3.39v1l-.3-.35Zm0,2,.3.32v.82l-.3-.29Zm0,1.63.3.27V60l-.3-.25Zm0,1.39.3.22v.61l-.3-.21Zm0,1.21.3.19v.54l-.3-.17Zm0,1.09.3.15v.49l-.3-.14Zm0,1,.3.12v.46l-.3-.11Zm0,.92.3.1v.42l-.3-.08Zm0,.88.3.06V66l-.3-.05Zm0,.83.3,0v.4l-.3,0Zm0,.83h.3v.39h-.3Zm0,.81h.3v.39l-.3,0Zm0,.82.3,0v.4l-.3.06Zm0,.84.3-.07V70l-.3.08Zm-.79-21.5.3.57V50.6l-.3-.51Zm0,3.56.3.46v1.39l-.3-.42Zm0,2.69.3.39V55.9l-.3-.35Zm0,2.15.3.32v.9l-.3-.3Zm0,1.77.3.27v.75l-.3-.24Zm0,1.5.3.23v.66l-.3-.21Zm0,1.32.3.19v.58l-.3-.17Zm0,1.18.3.15V63l-.3-.13Zm0,1.07.3.13V64l-.3-.11Zm0,1,.3.1V65l-.3-.08Zm0,1,.3.07v.44l-.3-.05Zm0,.91.3,0v.43l-.3,0Zm0,.89h.3v.43h-.3Zm0,.88h.3v.43l-.3,0Zm0,.89.3,0v.44l-.3.06Zm0,.91.3-.06v.45l-.3.08Zm-.49.6-.3.08V70l.3-.07Zm0-1-.3,0V69l.3,0Zm0-.94-.3,0v-.48h.3Zm0-.93h-.3v-.47h.3Zm0-.93-.3,0v-.48l.3,0Zm0-.94-.3,0v-.49l.3.06Zm0-1-.3-.08v-.52l.3.1Zm0-1-.3-.11v-.54l.3.12Zm0-1.08-.3-.14v-.59l.3.15Zm0-1.18-.3-.17v-.65l.3.19Zm0-1.3-.3-.21v-.73l.3.22Zm0-1.48-.3-.25v-.84l.3.27Zm0-1.7-.3-.3v-1l.3.33Zm0-2-.3-.35V53.39l.3.39Zm0-2.51-.3-.42V50.49l.3.46Zm0-3.22-.3-.51V46.66l.3.57Z"/><path class="cls-3" d="M69.73,50.74v.41l-1,.61V50.44l-1-.31v2.23l-1,.61V49.85l1,.26-3.11-.91-1-.28-.48.41-1.61,1.34V75l3.06,1.12,6.38,2.24V51.07Zm-7.31,2,.6-.42.44-.31v2.73L63,55l-.6.35v-2.6Zm1,18.74L63,71.44l-.6-.1V69.45l.6.06.44,0Zm0-3.92h-1V65.75l.6,0,.44,0Zm0-3.92-.44.08-.6.11V61.93l.6-.16.44-.12Zm0-4.16-.44.16-.6.22V57.73l.6-.28.44-.21Zm2.09,12.37-1-.19V69.64l1,.09Zm0-4.29h-1v-2l1-.09Zm0-4.28-1,.18V61.37l1-.28Zm0-4.56-1,.38V56.75l1-.48Zm0-5.19-1,.6V51.31l1-.73Zm2.09,18.69-1-.19V69.82l1,.09Zm0-4.66h-1V65.38l1-.09Zm0-4.65-1,.18V60.81l1-.28Zm0-5-1,.38V55.78l1-.49Zm2.09,14.64-1-.19V70l1,.09Zm0-5h-1V65.2l1-.09Zm0-5-1,.18V60.25l1-.28Zm0-5.35-1,.38v-2.8l1-.49Z"/><path class="cls-3" d="M21.32,74.87l-.09-13.16a20.79,20.79,0,0,0-5.09-.64c-.52,0-1.07,0-1.63,0-.87,0-1.7,0-2.48.07h0l-.35,0V77.4a19.11,19.11,0,0,0,2.15.21h.71c.57,0,1.11,0,1.63-.07.34,0,.66-.06,1-.1,2.33-.32,4-1,4.19-1.34a.2.2,0,0,1,0-.11V74.87ZM18.21,62.38c.59.07,1.07.14,1.43.21v13a11.57,11.57,0,0,1-1.4.4h0Zm-2.56-.15h.49l.93,0V76.21l-.93.11-.49,0Zm-2.57,14.1V62.23l1.42,0V76.39C14,76.39,13.53,76.37,13.08,76.33Z"/><path d="M70.85,78.4,61.41,75V50.67L63,49.33l.48-.41,1,.28V45.72l-4.28-1.6v-.77l-5-1.87V72.73h0L53.09,72V48.18l-2.92-.92h0l-.6,1.1V47.11a.11.11,0,0,0-.1-.1.1.1,0,0,0-.1.1v1.61l-.39.72V46.27a.1.1,0,0,0-.1-.09.09.09,0,0,0-.1.09V49.8L47.59,52v6.5l-.43.62-.59-2.8L45.83,61l-1.2,1.71V60.1H43.38v.39h0v-.42l-1,1.82v2l.3,0-.28.37,0,.21a4,4,0,0,0-1.25-.21,3.81,3.81,0,0,0-1.68.39l-.46-.8c-.08-1-.14-1.71-.14-1.71a.13.13,0,0,0,0-.07.1.1,0,0,0,.05-.08L38.79,61c0-.05-.06-.1-.15-.13v0h0c.12,0,.2-.09.21-.15a0,0,0,0,0,0,0c0-.08-.23-.21-.23-.23s0,0,0-.05a1.48,1.48,0,0,1,.2-.58.4.4,0,0,1,.1-.12c.09-.07.1-.27.1-.33l0-.05v-.07c0-.23-.12-1.82-.63-2.06v-.11h0s0,0-.1-.05,0-.58,0-.58h0s0,.44,0,.58-.1,0-.1.05h0a.59.59,0,0,1,0,.11c-.52.23-.62,1.83-.62,2.06v.07l0,.05c0,.06,0,.26.1.33a.41.41,0,0,1,.11.12,1.67,1.67,0,0,1,.2.58s0,0,0,.05-.23.15-.23.23a0,0,0,0,0,0,0c0,.06.09.11.21.15h0v0c-.09,0-.15.08-.15.13l-.07.45L37,60.3V54.73a2.4,2.4,0,0,0-1.82-2.32V49.53a.11.11,0,0,0-.1-.1.1.1,0,0,0-.1.1v2.84a2.22,2.22,0,0,0-.37,0,.57.57,0,0,0-.57.58v2.22L33.42,54V70.46l-3.49,1.27V43.35l-4.14,1.38v.8l.81,1.15,1.36,2v3.13l-2.17-2.59-1.53-1.82L22.78,45.6l-.07-.09,0-1.13.05-2.71v-.45L16.14,44v3.7h.05L18.09,49v1.62l-1.95.54v3.92c.24.06.47.13.7.21h0l.42.17,0,0,.38.19.06,0a2.71,2.71,0,0,1,.37.21l.06,0,.35.24,0,0,.35.27,0,0a8.28,8.28,0,0,1,.68.64l0,0c.11.12.21.23.3.35l0,0,.28.36,0,0c.09.12.18.25.26.38v0a8.16,8.16,0,0,1,.84,1.82h0c.05.16.1.32.14.49h0c0,.17.08.33.11.5h0c-.66-.4-2.8-.72-5.5-.81-.52,0-1.07,0-1.63,0-1,0-2,0-2.86.09v.71l.35,0h0c.78,0,1.61-.07,2.48-.07.56,0,1.11,0,1.63,0a20.79,20.79,0,0,1,5.09.64l.09,13.16V76a.2.2,0,0,0,0,.11c-.23.35-1.86,1-4.19,1.34-.31,0-.63.08-1,.1-.52,0-1.06.07-1.63.07H13.8a19.11,19.11,0,0,1-2.15-.21v1l1.15.34h0L30.88,84l10.37,3ZM56.47,57.08l.43-.31L58,56l1.44-1.05V74.3l-2.53-.93-.43-.16Zm3-13.24v8.4L58,53.51l-1.09,1-.43.38V47.66L57,47ZM48.91,54.33l1.26-2.19h0l1.7-3V71.51l-.39-.14-1.31-.48-1.26-.47V54.33ZM21.75,62Zm1-10.48V49.2l3,3,.17.16,2,2V72.45l-2.17.79-3,1.09Z"/><path d="M14.66,54.89V52.65l-.28,0v2.2h.28Z"/><polygon class="cls-4" points="25.79 45.53 22.78 41.22 22.78 41.67 22.73 44.38 22.71 45.52 22.78 45.6 24.27 47.36 25.79 49.18 27.96 51.77 27.96 48.64 26.6 46.68 25.79 45.53"/><polygon class="cls-4" points="58.2 47.35 57.99 47.6 56.49 49.38 56.48 50.65 56.47 50.89 56.65 50.7 57.99 49.26 59.42 47.71 59.43 47.69 59.43 47.59 59.43 45.88 58.3 47.23 58.2 47.35"/><polygon class="cls-4" points="56.9 51.89 56.49 52.31 56.47 53.56 56.9 53.17 57.99 52.19 59.43 50.88 59.43 49.35 57.99 50.8 56.9 51.89"/><polygon class="cls-4" points="50.17 54.8 50.17 54.8 49.42 55.85 49.42 55.87 49.42 58.86 49.42 60.75 50.17 60.13 51.05 59.39 51.05 53.56 50.9 53.77 50.17 54.8"/><polygon class="cls-4" points="62.42 61.93 62.42 63.87 63.02 63.76 63.46 63.69 63.46 61.65 63.02 61.77 62.42 61.93"/><polygon class="cls-4" points="62.42 57.73 62.42 59.9 63.02 59.68 63.46 59.52 63.46 57.24 63.02 57.45 62.42 57.73"/><polygon class="cls-4" points="62.42 65.75 62.42 67.6 63.02 67.6 63.46 67.6 63.46 65.66 63.02 65.7 62.42 65.75"/><polygon class="cls-4" points="62.42 69.45 62.42 71.33 63.02 71.44 63.46 71.52 63.46 69.55 63.02 69.51 62.42 69.45"/><polygon class="cls-4" points="62.42 52.78 62.42 53.2 62.42 55.38 63.02 55.03 63.46 54.77 63.46 53.52 63.46 52.05 63.02 52.36 62.42 52.78"/><polygon class="cls-4" points="64.51 67.6 65.56 67.6 65.56 65.48 64.51 65.57 64.51 67.6"/><polygon class="cls-4" points="64.51 59.14 65.56 58.76 65.56 56.27 64.51 56.76 64.51 59.14"/><polygon class="cls-4" points="64.51 54.17 65.56 53.57 65.56 50.58 64.51 51.31 64.51 54.17"/><polygon class="cls-4" points="64.51 63.5 65.56 63.32 65.56 61.09 64.51 61.37 64.51 63.5"/><polygon class="cls-4" points="64.51 71.7 65.56 71.89 65.56 69.73 64.51 69.64 64.51 71.7"/><polygon class="cls-4" points="66.6 58.38 67.64 57.99 67.64 55.29 66.6 55.78 66.6 58.38"/><polygon class="cls-4" points="66.6 49.83 66.6 52.97 67.64 52.36 67.64 50.13 67.64 50.13 67.58 50.11 66.6 49.83"/><polygon class="cls-4" points="68.69 50.44 68.69 51.76 69.73 51.15 69.73 50.74 68.69 50.44"/><polygon class="cls-4" points="66.6 67.6 67.64 67.6 67.64 65.29 66.6 65.38 66.6 67.6"/><polygon class="cls-4" points="66.6 63.13 67.64 62.95 67.64 60.53 66.6 60.81 66.6 63.13"/><polygon class="cls-4" points="66.6 72.07 67.64 72.26 67.64 69.91 66.6 69.82 66.6 72.07"/><polygon class="cls-4" points="68.69 72.44 69.73 72.63 69.73 70.09 68.69 70 68.69 72.44"/><polygon class="cls-4" points="68.69 57.61 69.73 57.23 69.73 54.32 68.69 54.81 68.69 57.61"/><polygon class="cls-4" points="68.69 62.76 69.73 62.58 69.73 59.97 68.69 60.25 68.69 62.76"/><polygon class="cls-4" points="68.69 67.6 69.73 67.6 69.73 65.11 68.69 65.2 68.69 67.6"/><polygon class="cls-4" points="30.34 70.52 30.64 70.44 30.64 69.95 30.34 70.02 30.34 70.52"/><polygon class="cls-4" points="30.34 61.31 30.64 61.48 30.64 60.84 30.34 60.66 30.34 61.31"/><polygon class="cls-4" points="30.34 59.97 30.64 60.17 30.64 59.46 30.34 59.24 30.34 59.97"/><polygon class="cls-4" points="30.34 62.52 30.64 62.66 30.64 62.08 30.34 61.93 30.34 62.52"/><polygon class="cls-4" points="30.34 63.63 30.64 63.74 30.64 63.21 30.34 63.09 30.34 63.63"/><polygon class="cls-4" points="30.34 64.68 30.64 64.76 30.64 64.26 30.34 64.17 30.34 64.68"/><polygon class="cls-4" points="30.34 48.72 30.64 49.23 30.64 47.23 30.34 46.66 30.34 48.72"/><polygon class="cls-4" points="30.34 52.03 30.64 52.45 30.64 50.95 30.34 50.49 30.34 52.03"/><polygon class="cls-4" points="30.34 56.7 30.64 57 30.64 56.03 30.34 55.7 30.34 56.7"/><polygon class="cls-4" points="30.34 58.45 30.64 58.7 30.64 57.88 30.34 57.61 30.34 58.45"/><polygon class="cls-4" points="30.34 54.61 30.64 54.96 30.64 53.78 30.34 53.39 30.34 54.61"/><polygon class="cls-4" points="30.34 69.53 30.64 69.47 30.64 69 30.34 69.04 30.34 69.53"/><polygon class="cls-4" points="30.34 68.56 30.64 68.53 30.64 68.06 30.34 68.08 30.34 68.56"/><polygon class="cls-4" points="30.34 67.6 30.64 67.6 30.64 67.14 30.34 67.13 30.34 67.6"/><polygon class="cls-4" points="30.34 65.68 30.64 65.73 30.64 65.25 30.34 65.19 30.34 65.68"/><polygon class="cls-4" points="30.34 66.65 30.64 66.67 30.64 66.21 30.34 66.17 30.34 66.65"/><polygon class="cls-4" points="31.13 57.49 31.43 57.78 31.43 56.89 31.13 56.57 31.13 57.49"/><polygon class="cls-4" points="31.13 59.12 31.43 59.37 31.43 58.61 31.13 58.34 31.13 59.12"/><polygon class="cls-4" points="31.13 55.55 31.43 55.9 31.43 54.81 31.13 54.42 31.13 55.55"/><polygon class="cls-4" points="31.13 53.16 31.43 53.58 31.43 52.19 31.13 51.73 31.13 53.16"/><polygon class="cls-4" points="31.13 62.89 31.43 63.02 31.43 62.49 31.13 62.34 31.13 62.89"/><polygon class="cls-4" points="31.13 64.89 31.43 64.97 31.43 64.51 31.13 64.41 31.13 64.89"/><polygon class="cls-4" points="31.13 63.92 31.43 64.03 31.43 63.54 31.13 63.41 31.13 63.92"/><polygon class="cls-4" points="31.13 61.76 31.43 61.93 31.43 61.35 31.13 61.16 31.13 61.76"/><polygon class="cls-4" points="31.13 60.52 31.43 60.73 31.43 60.07 31.13 59.84 31.13 60.52"/><polygon class="cls-4" points="31.13 66.72 31.43 66.74 31.43 66.31 31.13 66.27 31.13 66.72"/><polygon class="cls-4" points="31.13 50.09 31.43 50.6 31.43 48.74 31.13 48.17 31.13 50.09"/><polygon class="cls-4" points="31.13 70.31 31.43 70.23 31.43 69.78 31.13 69.84 31.13 70.31"/><polygon class="cls-4" points="31.13 65.82 31.43 65.87 31.43 65.43 31.13 65.36 31.13 65.82"/><polygon class="cls-4" points="31.13 68.49 31.43 68.46 31.43 68.03 31.13 68.04 31.13 68.49"/><polygon class="cls-4" points="31.13 67.6 31.43 67.6 31.43 67.17 31.13 67.16 31.13 67.6"/><polygon class="cls-4" points="31.13 69.39 31.43 69.33 31.43 68.89 31.13 68.93 31.13 69.39"/><polygon class="cls-4" points="31.92 51.45 32.22 51.97 32.22 50.26 31.92 49.69 31.92 51.45"/><polygon class="cls-4" points="31.92 70.1 32.22 70.02 32.22 69.6 31.92 69.67 31.92 70.1"/><polygon class="cls-4" points="31.92 56.49 32.22 56.84 32.22 55.84 31.92 55.45 31.92 56.49"/><polygon class="cls-4" points="31.92 63.25 32.22 63.39 32.22 62.9 31.92 62.75 31.92 63.25"/><polygon class="cls-4" points="31.92 64.21 32.22 64.32 32.22 63.86 31.92 63.74 31.92 64.21"/><polygon class="cls-4" points="31.92 62.22 32.22 62.39 32.22 61.85 31.92 61.66 31.92 62.22"/><polygon class="cls-4" points="31.92 65.1 32.22 65.18 32.22 64.76 31.92 64.66 31.92 65.1"/><polygon class="cls-4" points="31.92 59.78 32.22 60.03 32.22 59.33 31.92 59.06 31.92 59.78"/><polygon class="cls-4" points="31.92 61.07 32.22 61.28 32.22 60.67 31.92 60.45 31.92 61.07"/><polygon class="cls-4" points="31.92 65.96 32.22 66.01 32.22 65.6 31.92 65.53 31.92 65.96"/><polygon class="cls-4" points="31.92 58.28 32.22 58.57 32.22 57.75 31.92 57.43 31.92 58.28"/><polygon class="cls-4" points="31.92 69.25 32.22 69.19 32.22 68.79 31.92 68.83 31.92 69.25"/><polygon class="cls-4" points="31.92 68.42 32.22 68.39 32.22 68 31.92 68.01 31.92 68.42"/><polygon class="cls-4" points="31.92 54.29 32.22 54.71 32.22 53.43 31.92 52.97 31.92 54.29"/><polygon class="cls-4" points="31.92 67.6 32.22 67.6 32.22 67.21 31.92 67.19 31.92 67.6"/><polygon class="cls-4" points="31.92 66.79 32.22 66.81 32.22 66.41 31.92 66.38 31.92 66.79"/><polygon class="cls-4" points="32.71 57.43 33.01 57.78 33.01 56.87 32.71 56.48 32.71 57.43"/><polygon class="cls-4" points="32.71 59.07 33.01 59.36 33.01 58.61 32.71 58.29 32.71 59.07"/><polygon class="cls-4" points="32.71 60.44 33.01 60.69 33.01 60.05 32.71 59.78 32.71 60.44"/><polygon class="cls-4" points="32.71 67.6 33.01 67.6 33.01 67.24 32.71 67.23 32.71 67.6"/><polygon class="cls-4" points="32.71 66.86 33.01 66.88 33.01 66.52 32.71 66.48 32.71 66.86"/><polygon class="cls-4" points="32.71 66.1 33.01 66.15 33.01 65.78 32.71 65.71 32.71 66.1"/><polygon class="cls-4" points="32.71 69.11 33.01 69.06 33.01 68.69 32.71 68.73 32.71 69.11"/><polygon class="cls-4" points="32.71 61.63 33.01 61.83 33.01 61.28 32.71 61.05 32.71 61.63"/><polygon class="cls-4" points="32.71 68.35 33.01 68.32 33.01 67.96 32.71 67.97 32.71 68.35"/><polygon class="cls-4" points="32.71 52.82 33.01 53.33 33.01 51.78 32.71 51.21 32.71 52.82"/><polygon class="cls-4" points="32.71 69.89 33.01 69.81 33.01 69.43 32.71 69.49 32.71 69.89"/><polygon class="cls-4" points="32.71 55.41 33.01 55.84 33.01 54.67 32.71 54.21 32.71 55.41"/><polygon class="cls-4" points="32.71 65.31 33.01 65.39 33.01 65 32.71 64.91 32.71 65.31"/><polygon class="cls-4" points="32.71 62.67 33.01 62.85 33.01 62.35 32.71 62.16 32.71 62.67"/><polygon class="cls-4" points="32.71 64.5 33.01 64.6 33.01 64.19 32.71 64.07 32.71 64.5"/><polygon class="cls-4" points="32.71 63.62 33.01 63.76 33.01 63.31 32.71 63.16 32.71 63.62"/><path class="cls-4" d="M21.53,60.67h0c0-.17-.09-.33-.14-.49h0a8.16,8.16,0,0,0-.84-1.82v0c-.08-.13-.17-.26-.26-.38l0,0L20,57.54l0,0c-.09-.12-.19-.23-.3-.35l0,0A8.28,8.28,0,0,0,19,56.5l0,0-.35-.27,0,0-.35-.24-.06,0a2.71,2.71,0,0,0-.37-.21l-.06,0-.38-.19,0,0-.42-.17h0c-.23-.08-.46-.15-.7-.21l-.13,0c-.22,0-.44-.08-.67-.11s-.45,0-.68,0h-.28a8.23,8.23,0,0,0-1.31.16,6,6,0,0,0-.83.24h0l-.42.17,0,0-.13.06v4.88c.88-.06,1.84-.09,2.86-.09.56,0,1.11,0,1.63,0,2.7.09,4.84.41,5.5.81h0C21.61,61,21.57,60.84,21.53,60.67Z"/><polygon class="cls-4" points="21.75 61.96 21.75 61.96 21.75 61.97 21.75 61.96 21.75 61.96 21.75 61.96"/><path class="cls-4" d="M13.08,76.33c.45,0,.93.06,1.42.06V62.21l-1.42,0Z"/><path class="cls-4" d="M15.65,62.23V76.36l.49,0,.93-.11V62.29l-.93,0Z"/><path class="cls-4" d="M18.21,76h0a11.57,11.57,0,0,0,1.4-.4v-13c-.36-.07-.84-.14-1.43-.21Z"/><polygon class="cls-4" points="49.9 64.44 49.9 64.96 50.17 64.88 50.31 64.83 50.31 64.29 50.17 64.34 49.9 64.44"/><polygon class="cls-4" points="49.9 63.55 49.9 64.11 50.17 64 50.31 63.94 50.31 63.36 50.17 63.43 49.9 63.55"/><polygon class="cls-4" points="49.9 62.59 49.9 63.2 50.17 63.06 50.31 62.99 50.31 62.35 50.17 62.44 49.9 62.59"/><polygon class="cls-4" points="49.9 65.27 49.9 65.76 50.17 65.71 50.31 65.68 50.31 65.16 50.17 65.19 49.9 65.27"/><polygon class="cls-4" points="49.42 63.44 49.64 63.33 49.64 62.74 49.42 62.87 49.42 63.44"/><polygon class="cls-4" points="49.42 64.3 49.64 64.21 49.64 63.67 49.42 63.77 49.42 64.3"/><polygon class="cls-4" points="49.42 65.1 49.64 65.04 49.64 64.53 49.42 64.61 49.42 65.1"/><polygon class="cls-4" points="50.64 62.82 51.05 62.61 51.05 61.93 50.64 62.16 50.64 62.82"/><polygon class="cls-4" points="50.64 61.74 51.05 61.49 51.05 60.76 50.64 61.06 50.64 61.74"/><polygon class="cls-4" points="50.64 63.81 51.05 63.65 51.05 63.01 50.64 63.21 50.64 63.81"/><polygon class="cls-4" points="50.64 64.73 51.05 64.61 51.05 64.02 50.64 64.17 50.64 64.73"/><polygon class="cls-4" points="49.42 62.5 49.64 62.36 49.64 61.79 49.42 61.95 49.42 62.5"/><polygon class="cls-4" points="49.9 66.06 49.9 66.83 50.17 66.81 50.31 66.8 50.31 65.99 50.17 66.01 49.9 66.06"/><polygon class="cls-4" points="49.42 66.86 49.64 66.85 49.64 66.11 49.42 66.14 49.42 66.86"/><polygon class="cls-4" points="50.64 66.77 51.05 66.75 51.05 65.86 50.64 65.93 50.64 66.77"/><polygon class="cls-4" points="49.42 65.86 49.64 65.82 49.64 65.34 49.42 65.39 49.42 65.86"/><polygon class="cls-4" points="49.9 61.6 49.9 62.2 50.17 62.03 50.31 61.95 50.31 61.3 50.17 61.41 49.9 61.6"/><polygon class="cls-4" points="50.64 65.61 51.05 65.52 51.05 64.96 50.64 65.07 50.64 65.61"/><polygon class="cls-5" points="25.79 52.18 22.78 49.2 22.78 49.33 22.78 50.25 22.78 51.48 22.78 74.33 25.79 73.24 27.96 72.45 27.96 54.33 25.96 52.34 25.79 52.18"/><polygon class="cls-5" points="56.49 49.38 57.99 47.6 58.2 47.35 58.3 47.23 59.43 45.88 59.43 43.84 56.98 47 56.47 47.66 56.47 50.64 56.47 50.89 56.48 50.65 56.49 49.38"/><polygon class="cls-5" points="56.9 54.47 57.99 53.51 59.43 52.24 59.43 50.88 57.99 52.19 56.9 53.17 56.47 53.56 56.47 54.84 56.9 54.47"/><polygon class="cls-5" points="56.49 52.31 56.9 51.89 57.99 50.8 59.43 49.35 59.43 47.71 59.43 47.69 59.42 47.71 57.99 49.26 56.65 50.7 56.47 50.89 56.47 53.56 56.49 52.31"/><path class="cls-5" d="M50.17,52.14l-1.26,2.19V70.42l1.26.47,1.31.48.39.14V49.16l-1.7,3Zm-.53,14.71h-.22v-.72l.22,0Zm0-1-.22,0v-.47l.22,0Zm0-.78-.22.06v-.49l.22-.08Zm0-.83-.22.09v-.53l.22-.1Zm0-.88-.22.11v-.57l.22-.13Zm0-1-.22.14V62l.22-.16Zm.67,4.44h-.14l-.27,0v-.77l.27,0,.14,0Zm0-1.12-.14,0-.27.05v-.49l.27-.08.14,0Zm0-.85-.14,0L49.9,65v-.53l.27-.09.14,0Zm0-.89-.14.06-.27.11v-.56l.27-.12.14-.07Zm0-.95-.14.07-.27.14v-.61l.27-.15.14-.09Zm0-1-.14.09-.27.16v-.6l.27-.2.14-.1Zm.74-.46-.41.25v-.68l.41-.3Zm0,.44v.68l-.41.21v-.66Zm0,1.08v.64l-.41.16v-.6Zm0,1v.59l-.41.12v-.56Zm0,.94v.56l-.41.09v-.54Zm0,.9v.88l-.41,0v-.84ZM50.9,53.77l.15-.21v5.83l-.88.74-.75.62v-4.9l.75-1.05h0Z"/><polygon class="cls-5" points="56.9 56.77 56.47 57.09 56.47 73.21 56.9 73.37 59.43 74.3 59.43 73.29 59.43 55.27 59.43 54.94 57.99 55.99 56.9 56.77"/><path class="cls-5" d="M11.65,55.54h0l.13-.06Z"/><path class="cls-5" d="M19,56.5l.35.31Z"/><path class="cls-5" d="M19.3,56.81q.18.16.33.33Q19.48,57,19.3,56.81Z"/><path class="cls-5" d="M21.18,59.57a8.9,8.9,0,0,0-.63-1.23A8.9,8.9,0,0,1,21.18,59.57Z"/><path class="cls-5" d="M21.39,60.16c-.06-.2-.14-.4-.21-.59C21.25,59.76,21.33,60,21.39,60.16Z"/><path class="cls-5" d="M12,61.11c.78,0,1.61-.07,2.48-.07.56,0,1.11,0,1.63,0-.52,0-1.07,0-1.63,0C13.64,61,12.81,61.07,12,61.11Z"/><path class="cls-5" d="M11.65,61.13l.35,0-.35,0Z"/><path class="cls-5" d="M21.23,61.71a18,18,0,0,0-4.25-.6A18,18,0,0,1,21.23,61.71Z"/><polygon class="cls-6" points="41.27 68.53 28.64 73.11 53.77 73.13 41.27 68.53"/><path class="cls-4" d="M64.9,77.23,64,76.91H54.87l-3.74-2.36h6.5l-.88-.32H50.62l-2.87-1.8h4.1L51,72.1H47.23L45,70.69h2.16l-.88-.32H44.48L42.7,69.25h.54l-.88-.32h-.17l-.25-.16-.45-.16,0,0h0l-.14,0-.17.06h0l-.07,0-.49.18-.19.12h-.14l-.89.32h.51L38,70.37H36.2l-.9.32h2.21L35.26,72.1H31.41l-.89.33h4.23l-2.87,1.8H25.54l-.89.32h6.72l-3.75,2.36H21.71a3.17,3.17,0,0,1-.51.32h5.91L21,81.11h0l.38.11.73.21H33.05l-1.67,2.71.32.09,1.73-2.8h7.66V87l.17,0,.15,0V81.44h7.65l1.73,2.8.33-.09-1.68-2.71H60.38l.74-.21.37-.11h0l-6.16-3.88Zm-10.64-.32H46.63l-1.46-2.36h5.35ZM41.41,72.43h2.06l1.12,1.8H41.41Zm0-.33V70.69h1l.87,1.41Zm0-1.73V69.25h.1l.69,1.12Zm-.32-1.12v1.12H40.3L41,69.25Zm0,1.44V72.1H39.22l.88-1.41Zm0,1.74v1.8H37.9L39,72.43Zm0,2.12v2.36H36.24l1.46-2.36Zm.32,0h3.38l1.46,2.36H41.41Zm8.6-.32H45l-1.12-1.8h3.29ZM46.62,72.1h-3l-.87-1.41h1.6Zm-2.75-1.73H42.58l-.69-1.12h.21ZM40.4,69.25h.21l-.69,1.12H38.63Zm-2.29,1.44h1.61l-.88,1.41h-3Zm-2.75,1.74h3.28l-1.12,1.8h-5ZM32,74.55h5.35l-1.46,2.36H28.23ZM21.54,81.12l6.18-3.89h7.94l-2.41,3.89Zm12.09,0L36,77.23h5.05v3.89Zm7.78,0V77.23h5l2.41,3.89Zm19.54,0H49.24l-2.41-3.89h8Z"/><g class="cls-7"><circle class="cls-8" cx="41.22" cy="68.68" r="10.76"/></g></g></g></svg>