<?xml version="1.0" encoding="UTF-8"?>
<svg id="_4AllianceBracket" data-name="4AllianceBracket" xmlns="http://www.w3.org/2000/svg" viewBox="0 0 1076 686">
  <g id="background">
    <rect width="1076" height="686" fill="#fff"/>
    <rect x="872" y="89" width="75" height="545" fill="#d9d8d7"/>
    <rect x="108" y="89" width="75" height="545" fill="#d9d8d7"/>
    <rect x="334" y="89" width="75" height="545" fill="#d9d8d7"/>
    <rect x="583" y="89" width="75" height="545" fill="#d9d8d7"/>
    <polyline points="257 175.06 498.85 175.06 498.85 254" fill="none" stroke="#000" stroke-miterlimit="10" stroke-width="2"/>
    <polyline points="185.26 136.56 257 136.56 257 213.56 198.05 213.56" fill="none" stroke="#000" stroke-miterlimit="10" stroke-width="2"/>
    <polyline points="499 254 748 254 748 504.12 502 504.12 502 574.12 410 574.12" fill="none" stroke="#000" stroke-miterlimit="10" stroke-width="2"/>
    <line x1="69" y1="366" x2="784" y2="366" fill="none" stroke="#8c8c8c" stroke-miterlimit="10" stroke-width="2"/>
    <text transform="translate(48.71 305.53) rotate(-90)" font-family="MyriadPro-Bold, &apos;Myriad Pro&apos;" font-size="26" font-weight="700"><tspan x="0" y="0">UPPER B</tspan><tspan x="98.2" y="0" letter-spacing="0em">R</tspan><tspan x="113.85" y="0" letter-spacing="-.02em">A</tspan><tspan x="130.26" y="0">CK</tspan><tspan x="161.69" y="0" letter-spacing="0em">E</tspan><tspan x="175.71" y="0">T</tspan></text>
    <text transform="translate(48.71 589.48) rotate(-90)" font-family="MyriadPro-Bold, &apos;Myriad Pro&apos;" font-size="26" font-weight="700"><tspan x="0" y="0" letter-spacing="-.04em">L</tspan><tspan x="12.3" y="0" letter-spacing="0em">O</tspan><tspan x="30.76" y="0" letter-spacing="0em">WER B</tspan><tspan x="104.1" y="0" letter-spacing="0em">R</tspan><tspan x="119.75" y="0" letter-spacing="-.02em">A</tspan><tspan x="136.16" y="0">CK</tspan><tspan x="167.59" y="0" letter-spacing="0em">E</tspan><tspan x="181.61" y="0">T</tspan></text>
    <text transform="translate(115.7 84.26)" font-family="MyriadPro-Bold, &apos;Myriad Pro&apos;" font-size="16" font-weight="700"><tspan x="0" y="0" letter-spacing="0em">R</tspan><tspan x="9.42" y="0" letter-spacing="0em">OUND 1</tspan></text>
    <text transform="translate(338.7 84.26)" font-family="MyriadPro-Bold, &apos;Myriad Pro&apos;" font-size="16" font-weight="700"><tspan x="0" y="0" letter-spacing="0em">R</tspan><tspan x="9.42" y="0" letter-spacing="0em">OUND 2</tspan></text>
    <text transform="translate(587.7 84.26)" font-family="MyriadPro-Bold, &apos;Myriad Pro&apos;" font-size="16" font-weight="700"><tspan x="0" y="0" letter-spacing="0em">R</tspan><tspan x="9.42" y="0" letter-spacing="0em">OUND 3</tspan></text>
    <text transform="translate(885.08 84.26)" font-family="MyriadPro-Bold, &apos;Myriad Pro&apos;" font-size="16" font-weight="700"><tspan x="0" y="0">FINALS</tspan></text>
    <text id="playoffBracketTitle" transform="translate(153.33 47.69)" font-family="MyriadPro-Black, &apos;Myriad Pro&apos;" font-size="38" font-weight="800"><tspan x="0" y="0">P</tspan><tspan x="22.88" y="0" letter-spacing="0em">L</tspan><tspan x="43.21" y="0" letter-spacing="-.1em">A</tspan><tspan x="64.98" y="0" letter-spacing="-.05em">Y</tspan><tspan x="86.91" y="0">OFF B</tspan><tspan x="187.57" y="0" letter-spacing="0em">R</tspan><tspan x="211.39" y="0" letter-spacing="-.03em">A</tspan><tspan x="235.94" y="0">CKET {sele</tspan><tspan x="415.18" y="0" letter-spacing=".02em">c</tspan><tspan x="433.04" y="0" letter-spacing="0em">t</tspan><tspan x="447.41" y="0">ed</tspan><tspan x="491.07" y="0" letter-spacing="-.01em">E</tspan><tspan x="511.51" y="0" letter-spacing="-.02em">v</tspan><tspan x="531.8" y="0">e</tspan><tspan x="552.28" y="0" letter-spacing="0em">n</tspan><tspan x="574.78" y="0">t?.la</tspan><tspan x="649.6" y="0" letter-spacing="0em">b</tspan><tspan x="672.93" y="0" letter-spacing="0em">el}</tspan></text>
  </g>
  <g id="finals">
    <rect id="finalsBackground" x="784" y="272.45" width="250.49" height="178.1" rx="10" ry="10" fill="#bfbfbf" stroke="#000" stroke-miterlimit="10" stroke-width="2"/>
    <g id="finalsContainer">
      <polygon points="934.7 328.56 818.43 328.56 818.43 292.54 934.7 292.54 947.64 310.55 934.7 328.56" fill="#da0000"/>
      <polygon points="934.7 365 818.43 365 818.43 328.99 934.7 328.99 947.64 346.99 934.7 365" fill="#0000f9"/>
      <line x1="934.7" y1="328.75" x2="796" y2="328.75" fill="none" stroke="#fff" stroke-miterlimit="10"/>
      <rect x="796" y="292.54" width="22.43" height="72.46"/>
      <text transform="translate(811.78 357.63) rotate(-90)" fill="#fff" font-family="MyriadPro-Bold, &apos;Myriad Pro&apos;" font-size="12.08" font-weight="700"><tspan x="0" y="0">BEST 2 of 3</tspan></text>
      <text transform="translate(840.76 307.18)" fill="#fff" font-family="MyriadPro-Bold, &apos;Myriad Pro&apos;" font-size="12.15" font-weight="700"><tspan x="0" y="0" letter-spacing="-.03em">W</tspan><tspan x="10.46" y="0">inner of M3</tspan><tspan x="-16.95" y="14.58">22222 22222 22222</tspan></text>
      <text transform="translate(840.76 343.62)" fill="#fff" font-family="MyriadPro-Bold, &apos;Myriad Pro&apos;" font-size="12.15" font-weight="700"><tspan x="0" y="0" letter-spacing="-.03em">W</tspan><tspan x="10.46" y="0">inner of M5</tspan><tspan x="-16.95" y="14.58">22222 22222 22222</tspan></text>
    </g>
    <g id="trophy">
      <rect x="974.36" y="353.19" width="26.51" height="1.66" fill="#4a4f5d"/>
      <rect x="977.68" y="353.19" width="1.66" height="1.66" fill="#626775"/>
      <rect x="995.91" y="353.19" width="4.97" height="1.66" fill="#343845"/>
      <rect x="976.02" y="343.25" width="23.2" height="9.94" fill="#4a4f5d"/>
      <rect x="979.34" y="343.25" width="1.66" height="9.94" fill="#626775"/>
      <rect x="994.25" y="343.25" width="4.97" height="9.94" fill="#343845"/>
      <path d="m989.28,329.16c0,6.11,3.9,11.31,9.35,13.26l.6.83h-23.2l.59-.83c5.45-1.94,9.35-7.14,9.35-13.26h3.31Z" fill="#f0c833"/>
      <path d="m986.79,329.16h-.41c0,6.12-2.93,11.31-7.01,13.26l-.44.83h2.9l.3-.83c2.73-1.94,4.68-7.14,4.68-13.26Z" fill="#f6e59d"/>
      <path d="m998.62,342.42c-5.45-1.95-9.35-7.14-9.35-13.26h-.83c0,6.11,1.95,11.31,4.67,13.26l.3.83h5.8l-.6-.83Z" fill="#e8a026"/>
      <path d="m964.42,305.13c0,11.89,10.39,21.54,23.2,21.54s23.2-9.65,23.2-21.54h-46.4Zm23.2,19.06c-10.51,0-19.21-7.23-20.54-16.57h41.08c-1.32,9.34-10.03,16.57-20.53,16.57Z" fill="#f0c833"/>
      <path d="m1002.54,301.82h-29.83c0,15.56,6.68,28.17,14.91,28.17s14.91-12.61,14.91-28.17Z" fill="#f0c833"/>
      <path d="m995.08,301.82c0,15.56-3.34,28.17-7.46,28.17,8.24,0,14.91-12.61,14.91-28.17h-7.46Z" fill="#e8a026"/>
      <path d="m978.61,301.82h-2.18c0,15.56,5.01,28.17,11.19,28.17-4.98,0-9.01-12.61-9.01-28.17Z" fill="#f6e59d"/>
    </g>
    <circle id="winnerMatch1Dot" cx="836" cy="390" r="8" fill="#da0000"/>
    <text id="finalsM1Scores" transform="translate(824.59 416.55)" font-size="14"><tspan fill="#da0000" font-family="MyriadPro-Semibold, &apos;Myriad Pro&apos;" font-weight="600"><tspan x="0" y="0">999</tspan></tspan><tspan fill="#0000f9" font-family="MyriadPro-Black, &apos;Myriad Pro&apos;" font-weight="800"><tspan x="-.78" y="14">999</tspan></tspan></text>
    <circle id="winnerMatch2Dot" cx="865.23" cy="390" r="8" fill="#0000f9"/>
    <text id="finalsM2Scores" transform="translate(853.07 416.55)" font-size="14"><tspan fill="#da0000" font-family="MyriadPro-Black, &apos;Myriad Pro&apos;" font-weight="800"><tspan x="0" y="0">999</tspan></tspan><tspan fill="#0000f9" font-family="MyriadPro-Semibold, &apos;Myriad Pro&apos;" font-weight="600"><tspan x=".78" y="14">999</tspan></tspan></text>
    <circle id="winnerMatch3Dot" cx="894.46" cy="390" r="8" fill="#69b852"/>
    <text id="finalsM3Scores" transform="translate(883.09 416.55)" font-size="14"><tspan fill="#da0000" font-family="MyriadPro-Semibold, &apos;Myriad Pro&apos;" font-weight="600"><tspan x="0" y="0">999</tspan></tspan><tspan fill="#0000f9" font-family="MyriadPro-Black, &apos;Myriad Pro&apos;" font-weight="800"><tspan x="-.78" y="14">999</tspan></tspan></text>
    <circle id="winnerMatch4Dot" cx="923.69" cy="390" r="8" fill="#69b852"/>
    <text id="finalsM4Scores" transform="translate(912.34 416.55)" font-size="14"><tspan fill="#da0000" font-family="MyriadPro-Semibold, &apos;Myriad Pro&apos;" font-weight="600"><tspan x="0" y="0">999</tspan></tspan><tspan fill="#0000f9" font-family="MyriadPro-Black, &apos;Myriad Pro&apos;" font-weight="800"><tspan x="-.78" y="14">999</tspan></tspan></text>
    <circle id="winnerMatch5Dot" cx="952.92" cy="390" r="8" fill="#69b852"/>
    <text id="finalsM5Scores" transform="translate(941.67 416.55)" font-size="14"><tspan fill="#da0000" font-family="MyriadPro-Semibold, &apos;Myriad Pro&apos;" font-weight="600"><tspan x="0" y="0">999</tspan></tspan><tspan fill="#0000f9" font-family="MyriadPro-Black, &apos;Myriad Pro&apos;" font-weight="800"><tspan x="-.78" y="14">999</tspan></tspan></text>
    <circle id="winnerMatch6Dot" cx="982" cy="390" r="8" fill="#69b852"/>
    <text id="finalsM6Scores" transform="translate(970.74 416.55)" font-size="14"><tspan fill="#da0000" font-family="MyriadPro-Semibold, &apos;Myriad Pro&apos;" font-weight="600"><tspan x="0" y="0">999</tspan></tspan><tspan fill="#0000f9" font-family="MyriadPro-Black, &apos;Myriad Pro&apos;" font-weight="800"><tspan x="-.78" y="14">999</tspan></tspan></text>
  </g>
  <g id="match5">
    <g>
      <polygon points="691.7 504.56 555.43 504.56 555.43 468.54 691.7 468.54 704.64 486.55 691.7 504.56" fill="#da0000"/>
      <polygon points="691.7 541 555.43 541 555.43 504.99 691.7 504.99 704.64 522.99 691.7 541" fill="#0000f9"/>
      <line x1="691.7" y1="504.75" x2="533" y2="504.75" fill="none" stroke="#fff" stroke-miterlimit="10"/>
      <rect x="533" y="468.54" width="22.43" height="72.46"/>
      <text transform="translate(548.78 528.26) rotate(-90)" fill="#fff" font-family="MyriadPro-Bold, &apos;Myriad Pro&apos;" font-size="12.08" font-weight="700"><tspan x="0" y="0" letter-spacing="0em">M</tspan><tspan x="10.18" y="0" letter-spacing="-.08em">A</tspan><tspan x="17.1" y="0" letter-spacing="-.03em">T</tspan><tspan x="23.37" y="0">CH 5</tspan></text>
      <text transform="translate(582.56 483.18)" fill="#fff" font-family="MyriadPro-Bold, &apos;Myriad Pro&apos;" font-size="12.15" font-weight="700"><tspan x="0" y="0" letter-spacing="0em">L</tspan><tspan x="6.1" y="0">oser of M3</tspan><tspan x="-21.77" y="14.58">22222 22222 22222</tspan></text>
      <text transform="translate(577.76 519.62)" fill="#fff" font-family="MyriadPro-Bold, &apos;Myriad Pro&apos;" font-size="12.15" font-weight="700"><tspan x="0" y="0" letter-spacing="-.03em">W</tspan><tspan x="10.46" y="0">inner of M4</tspan><tspan x="-16.95" y="14.58">22222 22222 22222</tspan></text>
      <circle id="match13BlueDot" cx="700" cy="483" r="8" fill="#f0c833"/>
      <circle id="match13BlueDot-2" data-name="match13BlueDot" cx="700" cy="520" r="8" fill="#f0c833"/>
      <text id="M13BlueScore" transform="translate(666.4 525.63)" fill="#fff" font-family="MyriadPro-Bold, &apos;Myriad Pro&apos;" font-size="15" font-weight="700"><tspan x="0" y="0">999</tspan></text>
      <text id="M13RedScore" transform="translate(666.4 489.63)" fill="#fff" font-family="MyriadPro-Bold, &apos;Myriad Pro&apos;" font-size="15" font-weight="700"><tspan x="0" y="0">999</tspan></text>
    </g>
  </g>
  <g id="match4">
    <g>
      <polygon points="449.7 574.56 313.43 574.56 313.43 538.54 449.7 538.54 462.64 556.55 449.7 574.56" fill="#da0000"/>
      <polygon points="449.7 611 313.43 611 313.43 574.99 449.7 574.99 462.64 592.99 449.7 611" fill="#0000f9"/>
      <line x1="449.7" y1="574.75" x2="291" y2="574.75" fill="none" stroke="#fff" stroke-miterlimit="10"/>
      <rect x="291" y="538.54" width="22.43" height="72.46"/>
      <text transform="translate(306.78 598.26) rotate(-90)" fill="#fff" font-family="MyriadPro-Bold, &apos;Myriad Pro&apos;" font-size="12.08" font-weight="700"><tspan x="0" y="0" letter-spacing="0em">M</tspan><tspan x="10.18" y="0" letter-spacing="-.08em">A</tspan><tspan x="17.1" y="0" letter-spacing="-.03em">T</tspan><tspan x="23.37" y="0">CH 4</tspan></text>
      <text transform="translate(340.56 553.18)" fill="#fff" font-family="MyriadPro-Bold, &apos;Myriad Pro&apos;" font-size="12.15" font-weight="700"><tspan x="0" y="0" letter-spacing="0em">L</tspan><tspan x="6.1" y="0">oser of M1</tspan><tspan x="-21.77" y="14.58">22222 22222 22222</tspan></text>
      <text transform="translate(340.56 589.62)" fill="#fff" font-family="MyriadPro-Bold, &apos;Myriad Pro&apos;" font-size="12.15" font-weight="700"><tspan x="0" y="0" letter-spacing="0em">L</tspan><tspan x="6.1" y="0">oser of M2</tspan><tspan x="-21.77" y="14.58">22222 22222 22222</tspan></text>
      <circle id="match12RedDot" cx="461" cy="556" r="8" fill="#f0c833"/>
      <circle id="match12BlueDot" cx="461" cy="593" r="8" fill="#f0c833"/>
      <text id="M12BlueScore" transform="translate(426.4 595.63)" fill="#fff" font-family="MyriadPro-Bold, &apos;Myriad Pro&apos;" font-size="15" font-weight="700"><tspan x="0" y="0">999</tspan></text>
      <text id="M12RedScore" transform="translate(426.4 559.63)" fill="#fff" font-family="MyriadPro-Bold, &apos;Myriad Pro&apos;" font-size="15" font-weight="700"><tspan x="0" y="0">999</tspan></text>
    </g>
  </g>
  <g id="match3">
    <g>
      <polygon points="447.7 174.56 311.43 174.56 311.43 138.54 447.7 138.54 460.64 156.55 447.7 174.56" fill="#da0000"/>
      <polygon points="447.7 211 311.43 211 311.43 174.99 447.7 174.99 460.64 192.99 447.7 211" fill="#0000f9"/>
      <line x1="447.7" y1="174.75" x2="289" y2="174.75" fill="none" stroke="#fff" stroke-miterlimit="10"/>
      <rect x="289" y="138.54" width="22.43" height="72.46"/>
      <text transform="translate(304.78 198.26) rotate(-90)" fill="#fff" font-family="MyriadPro-Bold, &apos;Myriad Pro&apos;" font-size="12.08" font-weight="700"><tspan x="0" y="0" letter-spacing="0em">M</tspan><tspan x="10.18" y="0" letter-spacing="-.08em">A</tspan><tspan x="17.1" y="0" letter-spacing="-.03em">T</tspan><tspan x="23.37" y="0" letter-spacing="0em">CH 3</tspan></text>
      <text transform="translate(333.76 153.18)" fill="#fff" font-family="MyriadPro-Bold, &apos;Myriad Pro&apos;" font-size="12.15" font-weight="700"><tspan x="0" y="0" letter-spacing="-.03em">W</tspan><tspan x="10.46" y="0">inner of M1</tspan><tspan x="-16.95" y="14.58">22222 22222 22222</tspan></text>
      <text transform="translate(333.76 189.62)" fill="#fff" font-family="MyriadPro-Bold, &apos;Myriad Pro&apos;" font-size="12.15" font-weight="700"><tspan x="0" y="0" letter-spacing="-.03em">W</tspan><tspan x="10.46" y="0">inner of M2</tspan><tspan x="-16.95" y="14.58">22222 22222 22222</tspan></text>
      <circle id="match7RedDot" cx="461" cy="156" r="8" fill="#f0c833"/>
      <circle id="match7BlueDot" cx="461" cy="193" r="8" fill="#f0c833"/>
      <text id="M7BlueScore" transform="translate(425.4 196.63)" fill="#fff" font-family="MyriadPro-Bold, &apos;Myriad Pro&apos;" font-size="15" font-weight="700"><tspan x="0" y="0">999</tspan></text>
      <text id="M7RedScore" transform="translate(425.4 160.63)" fill="#fff" font-family="MyriadPro-Bold, &apos;Myriad Pro&apos;" font-size="15" font-weight="700"><tspan x="0" y="0">999</tspan></text>
    </g>
  </g>
  <g id="match2">
    <g>
      <polygon points="222.7 213.56 86.43 213.56 86.43 177.54 222.7 177.54 235.64 195.55 222.7 213.56" fill="#da0000"/>
      <polygon points="222.7 250 86.43 250 86.43 213.99 222.7 213.99 235.64 231.99 222.7 250" fill="#0000f9"/>
      <line x1="222.7" y1="213.75" x2="64" y2="213.75" fill="none" stroke="#fff" stroke-miterlimit="10"/>
      <rect x="64" y="177.54" width="22.43" height="72.46"/>
      <text transform="translate(79.78 237.26) rotate(-90)" fill="#fff" font-family="MyriadPro-Bold, &apos;Myriad Pro&apos;" font-size="12.08" font-weight="700"><tspan x="0" y="0" letter-spacing="0em">M</tspan><tspan x="10.18" y="0" letter-spacing="-.08em">A</tspan><tspan x="17.1" y="0" letter-spacing="-.03em">T</tspan><tspan x="23.37" y="0" letter-spacing="0em">CH 2</tspan></text>
      <text transform="translate(114.84 192.18)" fill="#fff" font-family="MyriadPro-Bold, &apos;Myriad Pro&apos;" font-size="12.15" font-weight="700"><tspan x="0" y="0">DIVISION C</tspan><tspan x="-23.07" y="14.58">22222 22222 22222</tspan></text>
      <text transform="translate(114.23 228.62)" fill="#fff" font-family="MyriadPro-Bold, &apos;Myriad Pro&apos;" font-size="12.15" font-weight="700"><tspan x="0" y="0">DIVISION D</tspan><tspan x="-22.45" y="14.58">22222 22222 22222</tspan></text>
      <circle id="match2RedDot" cx="236" cy="195" r="8" fill="#f0c833"/>
      <circle id="match2BlueDot" cx="236" cy="232" r="8" fill="#f0c833"/>
      <text id="M2BlueScore" transform="translate(201.4 236.63)" fill="#fff" font-family="MyriadPro-Bold, &apos;Myriad Pro&apos;" font-size="15" font-weight="700"><tspan x="0" y="0">999</tspan></text>
      <text id="M2RedScore" transform="translate(201.4 200.63)" fill="#fff" font-family="MyriadPro-Bold, &apos;Myriad Pro&apos;" font-size="15" font-weight="700"><tspan x="0" y="0">999</tspan></text>
    </g>
  </g>
  <g id="match1">
    <g>
      <polygon points="222.7 136.56 86.43 136.56 86.43 100.54 222.7 100.54 235.64 118.55 222.7 136.56" fill="#da0000"/>
      <polygon points="222.7 173 86.43 173 86.43 136.99 222.7 136.99 235.64 154.99 222.7 173" fill="#0000f9"/>
      <line x1="222.7" y1="136.75" x2="64" y2="136.75" fill="none" stroke="#fff" stroke-miterlimit="10"/>
      <rect x="64" y="100.54" width="22.43" height="72.46"/>
      <text transform="translate(79.78 160.26) rotate(-90)" fill="#fff" font-family="MyriadPro-Bold, &apos;Myriad Pro&apos;" font-size="12.08" font-weight="700"><tspan x="0" y="0" letter-spacing="0em">M</tspan><tspan x="10.18" y="0" letter-spacing="-.08em">A</tspan><tspan x="17.1" y="0" letter-spacing="-.03em">T</tspan><tspan x="23.37" y="0" letter-spacing="0em">CH 1</tspan></text>
      <text transform="translate(114.47 115.18)" fill="#fff" font-family="MyriadPro-Bold, &apos;Myriad Pro&apos;" font-size="12.15" font-weight="700"><tspan x="0" y="0">DIVISION A</tspan><tspan x="-22.7" y="14.58">22222 22222 22222</tspan></text>
      <text transform="translate(114.79 151.62)" fill="#fff" font-family="MyriadPro-Bold, &apos;Myriad Pro&apos;" font-size="12.15" font-weight="700"><tspan x="0" y="0">DIVISION B</tspan><tspan x="-23.01" y="14.58">22222 22222 22222</tspan></text>
      <circle id="match1RedDot" cx="236" cy="118" r="8" fill="#f0c833"/>
      <circle id="match1BlueDot" cx="236" cy="155" r="8" fill="#f0c833"/>
      <text id="M1BlueScore" transform="translate(201.4 159.63)" fill="#fff" font-family="MyriadPro-Bold, &apos;Myriad Pro&apos;" font-size="15" font-weight="700"><tspan x="0" y="0">999</tspan></text>
      <text id="M1RedScore" transform="translate(201.4 123.63)" fill="#fff" font-family="MyriadPro-Bold, &apos;Myriad Pro&apos;" font-size="15" font-weight="700"><tspan x="0" y="0">999</tspan></text>
    </g>
  </g>
</svg>