<?xml version="1.0" encoding="UTF-8"?>
<svg id="_2AllianceBracket" data-name="2AllianceBracket" xmlns="http://www.w3.org/2000/svg" viewBox="0 0 1076 568">
  <g id="background">
    <rect x=".01" y="2" width="1076" height="565.12" fill="#fff"/>
    <rect x="500.51" y="128" width="75" height="344.61" fill="#d9d8d7"/>
    <text transform="translate(505.92 123.26)" font-family="MyriadPro-Bold, &apos;Myriad Pro&apos;" font-size="20" font-weight="700"><tspan x="0" y="0">FINALS</tspan></text>
    <text id="playoffBracketTitle" transform="translate(179.53 49.69)" font-family="MyriadPro-Black, &apos;Myriad Pro&apos;" font-size="38" font-weight="800"><tspan x="0" y="0">P</tspan><tspan x="22.88" y="0" letter-spacing="0em">L</tspan><tspan x="43.21" y="0" letter-spacing="-.1em">A</tspan><tspan x="64.98" y="0" letter-spacing="-.05em">Y</tspan><tspan x="86.91" y="0">OFF B</tspan><tspan x="187.57" y="0" letter-spacing="0em">R</tspan><tspan x="211.39" y="0" letter-spacing="-.03em">A</tspan><tspan x="235.94" y="0">CKET {sele</tspan><tspan x="415.18" y="0" letter-spacing=".02em">c</tspan><tspan x="433.04" y="0" letter-spacing="0em">t</tspan><tspan x="447.41" y="0">ed</tspan><tspan x="491.07" y="0" letter-spacing="-.01em">E</tspan><tspan x="511.51" y="0" letter-spacing="-.02em">v</tspan><tspan x="531.8" y="0">e</tspan><tspan x="552.28" y="0" letter-spacing="0em">n</tspan><tspan x="574.78" y="0">t?.la</tspan><tspan x="649.6" y="0" letter-spacing="0em">b</tspan><tspan x="672.93" y="0" letter-spacing="0em">el}</tspan></text>
  </g>
  <g id="finals">
    <rect id="finalsBackground" x="363.69" y="166.55" width="357.1" height="253.91" rx="10" ry="10" fill="#bfbfbf" stroke="#000" stroke-miterlimit="10" stroke-width="2"/>
    <g id="finalsContainer">
      <polygon points="578.53 246.54 412.77 246.54 412.77 195.19 578.53 195.19 596.98 220.87 578.53 246.54" fill="#da0000"/>
      <polygon points="578.53 298.49 412.77 298.49 412.77 247.15 578.53 247.15 596.98 272.82 578.53 298.49" fill="#0000f9"/>
      <line x1="578.53" y1="246.81" x2="380.8" y2="246.81" fill="none" stroke="#fff" stroke-miterlimit="10"/>
      <rect x="380.8" y="195.19" width="31.97" height="103.3"/>
      <text transform="translate(403.29 287.99) rotate(-90)" fill="#fff" font-family="MyriadPro-Bold, &apos;Myriad Pro&apos;" font-size="17.22" font-weight="700"><tspan x="0" y="0">BEST 2 of 3</tspan></text>
      <text transform="translate(458.6 216.06)" fill="#fff" font-family="MyriadPro-Bold, &apos;Myriad Pro&apos;" font-size="17.32" font-weight="700"><tspan x="0" y="0" letter-spacing="0em">A</tspan><tspan x="11.26" y="0">llian</tspan><tspan x="44.82" y="0" letter-spacing="-.01em">c</tspan><tspan x="52.44" y="0">e 1</tspan><tspan x="-38.24" y="20.78">22222 22222 22222</tspan></text>
      <text transform="translate(458.6 268.01)" fill="#fff" font-family="MyriadPro-Bold, &apos;Myriad Pro&apos;" font-size="17.32" font-weight="700"><tspan x="0" y="0" letter-spacing="0em">A</tspan><tspan x="11.26" y="0">llian</tspan><tspan x="44.82" y="0" letter-spacing="-.01em">c</tspan><tspan x="52.44" y="0">e 2</tspan><tspan x="-38.24" y="20.78">22222 22222 22222</tspan></text>
    </g>
    <g id="trophy">
      <rect x="635.08" y="281.65" width="37.8" height="2.36" fill="#4a4f5d"/>
      <rect x="639.81" y="281.65" width="2.36" height="2.36" fill="#626775"/>
      <rect x="665.79" y="281.65" width="7.09" height="2.36" fill="#343845"/>
      <rect x="637.44" y="267.48" width="33.08" height="14.18" fill="#4a4f5d"/>
      <rect x="642.17" y="267.48" width="2.36" height="14.18" fill="#626775"/>
      <rect x="663.43" y="267.48" width="7.09" height="14.18" fill="#343845"/>
      <path d="m656.34,247.4c0,8.72,5.56,16.13,13.32,18.9l.85,1.18h-33.08l.84-1.18c7.77-2.77,13.33-10.18,13.33-18.9h4.73Z" fill="#f0c833"/>
      <path d="m652.8,247.4h-.59c0,8.72-4.17,16.13-10,18.9l-.63,1.18h4.13l.42-1.18c3.89-2.77,6.67-10.18,6.67-18.9Z" fill="#f6e59d"/>
      <path d="m669.67,266.3c-7.77-2.77-13.32-10.18-13.32-18.9h-1.18c0,8.72,2.78,16.13,6.66,18.9l.43,1.18h8.27l-.85-1.18Z" fill="#e8a026"/>
      <path d="m620.91,213.14c0,16.95,14.81,30.71,33.08,30.71s33.07-13.75,33.07-30.71h-66.15Zm33.08,27.17c-14.98,0-27.39-10.31-29.29-23.63h58.56c-1.89,13.31-14.3,23.63-29.27,23.63Z" fill="#f0c833"/>
      <path d="m675.24,208.41h-42.53c0,22.18,9.52,40.16,21.26,40.16s21.26-17.98,21.26-40.16Z" fill="#f0c833"/>
      <path d="m664.61,208.41c0,22.18-4.76,40.16-10.63,40.16,11.74,0,21.26-17.98,21.26-40.16h-10.63Z" fill="#e8a026"/>
      <path d="m641.13,208.41h-3.1c0,22.18,7.14,40.16,15.95,40.16-7.09,0-12.85-17.98-12.85-40.16Z" fill="#f6e59d"/>
    </g>
    <circle id="winnerMatch1Dot" cx="437.83" cy="334.13" r="11.41" fill="#da0000"/>
    <text id="finalsM1Scores" transform="translate(421.56 371.99)" font-size="19.96"><tspan fill="#da0000" font-family="MyriadPro-Semibold, &apos;Myriad Pro&apos;" font-weight="600"><tspan x="0" y="0">999</tspan></tspan><tspan fill="#0000f9" font-family="MyriadPro-Black, &apos;Myriad Pro&apos;" font-weight="800"><tspan x="-1.11" y="19.96">999</tspan></tspan></text>
    <circle id="winnerMatch2Dot" cx="479.5" cy="334.13" r="11.41" fill="#0000f9"/>
    <text id="finalsM2Scores" transform="translate(462.16 371.99)" font-size="19.96"><tspan fill="#da0000" font-family="MyriadPro-Black, &apos;Myriad Pro&apos;" font-weight="800"><tspan x="0" y="0">999</tspan></tspan><tspan fill="#0000f9" font-family="MyriadPro-Semibold, &apos;Myriad Pro&apos;" font-weight="600"><tspan x="1.11" y="19.96">999</tspan></tspan></text>
    <circle id="winnerMatch3Dot" cx="521.17" cy="334.13" r="11.41" fill="#69b852"/>
    <text id="finalsM3Scores" transform="translate(504.96 371.99)" font-size="19.96"><tspan fill="#da0000" font-family="MyriadPro-Semibold, &apos;Myriad Pro&apos;" font-weight="600"><tspan x="0" y="0">999</tspan></tspan><tspan fill="#0000f9" font-family="MyriadPro-Black, &apos;Myriad Pro&apos;" font-weight="800"><tspan x="-1.11" y="19.96">999</tspan></tspan></text>
    <circle id="winnerMatch4Dot" cx="562.84" cy="334.13" r="11.41" fill="#69b852"/>
    <text id="finalsM4Scores" transform="translate(546.66 371.99)" font-size="19.96"><tspan fill="#da0000" font-family="MyriadPro-Semibold, &apos;Myriad Pro&apos;" font-weight="600"><tspan x="0" y="0">999</tspan></tspan><tspan fill="#0000f9" font-family="MyriadPro-Black, &apos;Myriad Pro&apos;" font-weight="800"><tspan x="-1.11" y="19.96">999</tspan></tspan></text>
    <circle id="winnerMatch5Dot" cx="604.52" cy="334.13" r="11.41" fill="#69b852"/>
    <text id="finalsM5Scores" transform="translate(588.47 371.99)" font-size="19.96"><tspan fill="#da0000" font-family="MyriadPro-Semibold, &apos;Myriad Pro&apos;" font-weight="600"><tspan x="0" y="0">999</tspan></tspan><tspan fill="#0000f9" font-family="MyriadPro-Black, &apos;Myriad Pro&apos;" font-weight="800"><tspan x="-1.11" y="19.96">999</tspan></tspan></text>
    <circle id="winnerMatch6Dot" cx="645.97" cy="334.13" r="11.41" fill="#69b852"/>
    <text id="finalsM6Scores" transform="translate(629.92 371.99)" font-size="19.96"><tspan fill="#da0000" font-family="MyriadPro-Semibold, &apos;Myriad Pro&apos;" font-weight="600"><tspan x="0" y="0">999</tspan></tspan><tspan fill="#0000f9" font-family="MyriadPro-Black, &apos;Myriad Pro&apos;" font-weight="800"><tspan x="-1.11" y="19.96">999</tspan></tspan></text>
  </g>
</svg>