<?xml version="1.0" encoding="UTF-8"?>
<svg id="Layer_1" xmlns="http://www.w3.org/2000/svg" width="812.3" height="570.1" baseProfile="tiny" version="1.2" viewBox="0 0 812.3 570.1">
  <!-- Generator: Adobe Illustrator 29.3.1, SVG Export Plug-In . SVG Version: 2.1.0 Build 151)  -->
  <path d="M390.8,498.9c0,7.7-2.9,15.4-8.8,21.2l-13.4,13.4c-11.7,11.7-30.7,11.7-42.5,0-11.1-11.1-11.7-28.8-1.7-40.6.7-.5,1.3-1.1,1.9-1.7l16.1-16.1c6.6-5.1,14.7-7.1,22.5-6,6.2.9,12.3,3.7,17.1,8.5,4.8,4.8,7.7,10.8,8.5,17.1.2,1.4.3,2.8.3,4.1Z" fill="none" stroke="#3c3c3b" stroke-linecap="round" stroke-linejoin="round" stroke-width="20"/>
  <g>
    <path d="M320.7,399.8c0,6.6-2.2,13.3-6.5,18.7-.7.9-1.4,1.7-2.2,2.5l-9.1,9.1c-1,.7-1.9,1.6-2.8,2.5l-16.2,16.2c-.9.9-1.7,1.8-2.5,2.8l-2.1,2.1c-11.7,11.7-30.8,11.7-42.5,0-11.4-11.4-11.7-29.6-1.1-41.4,0-.1.2-.2.3-.3.3-.3.6-.5.8-.8l23.2-23.2c.4-.4.7-.7,1.1-1.1,0,0,.1-.1.2-.2l8.3-8.3c.8-.8,1.6-1.6,2.5-2.2,11.8-9.4,29-8.7,40,2.2,5.8,5.9,8.8,13.6,8.8,21.2Z" fill="none" stroke="#3c3c3b" stroke-linecap="round" stroke-linejoin="round" stroke-width="20"/>
    <path d="M261,387c-.3.4-.7.7-1.1,1.1l-23.2,23.2c-.3.3-.5.5-.8.8.3-.3.5-.6.8-.9l24.3-24.3Z" fill="none" stroke="#3c3c3b" stroke-linecap="round" stroke-linejoin="round" stroke-width="20"/>
    <path d="M302.9,430.1l-21.5,21.5c.7-1,1.6-1.9,2.5-2.8l16.2-16.2c.9-.9,1.8-1.7,2.8-2.5Z" fill="none" stroke="#3c3c3b" stroke-linecap="round" stroke-linejoin="round" stroke-width="20"/>
    <path d="M268.7,366.9c0,1.9-.2,3.7-.5,5.6-.9,5.2-3.3,10.1-7,14.3,0,0-.1.1-.2.2l-24.3,24.3c-.3.3-.5.6-.8.9,0,0-.2.1-.3.3-11.8,10.7-30,10.3-41.4-1.1-9.6-9.6-11.3-23.9-5.4-35.2,1.5-1.8,3-3.9,4.3-6.1h0c.3-.4.7-.8,1-1.1l23.2-23.2c4.3-4.3,9.6-7.1,15.2-8.2.2,0,.3,0,.5,0,9.4-1.8,19.5,1,26.8,8.3,5.9,5.9,8.8,13.6,8.8,21.2Z" fill="none" stroke="#3c3c3b" stroke-linecap="round" stroke-linejoin="round" stroke-width="20"/>
    <path d="M261,387c-.3.4-.7.7-1.1,1.1l-23.2,23.2c-.3.3-.5.5-.8.8.3-.3.5-.6.8-.9l24.3-24.3Z" fill="none" stroke="#3c3c3b" stroke-linecap="round" stroke-linejoin="round" stroke-width="20"/>
    <path d="M351.3,453.8c0,.6,0,1.1,0,1.7-.4,7.1-3.3,14.1-8.7,19.5h-.1c-1,.9-2,1.7-2.9,2.6l-13.4,13.4c-.6.6-1.2,1.2-1.7,1.9-11.8,10-29.4,9.4-40.6-1.7-10.8-10.8-11.7-27.9-2.5-39.7l21.5-21.5c4.9-3.8,10.8-5.9,16.7-6.2,8.2-.5,16.6,2.4,22.9,8.7,5.8,5.9,8.8,13.6,8.8,21.2Z" fill="none" stroke="#3c3c3b" stroke-linecap="round" stroke-linejoin="round" stroke-width="20"/>
    <path d="M300,432.6c.9-.9,1.8-1.7,2.8-2.5l-21.5,21.5c.7-1,1.6-1.9,2.5-2.8l16.2-16.2Z" fill="none" stroke="#3c3c3b" stroke-linecap="round" stroke-linejoin="round" stroke-width="20"/>
    <path d="M342.4,475.2l-16.1,16.1c-.6.6-1.2,1.2-1.9,1.7.5-.7,1.1-1.3,1.7-1.9l13.4-13.4c.9-.9,1.9-1.8,2.9-2.5Z" fill="none" stroke="#3c3c3b" stroke-linecap="round" stroke-linejoin="round" stroke-width="20"/>
    <path d="M342.4,475.2l-16.1,16.1c-.6.6-1.2,1.2-1.9,1.7.5-.7,1.1-1.3,1.7-1.9l13.4-13.4c.9-.9,1.9-1.8,2.9-2.5Z" fill="none" stroke="#3c3c3b" stroke-linecap="round" stroke-linejoin="round" stroke-width="20"/>
  </g>
  <line x1="333" y1="125.6" x2="194.4" y2="110.3" fill="none" stroke="#3c3c3b" stroke-linecap="round" stroke-linejoin="round" stroke-width="20"/>
  <path d="M192.2,371.6c-20.1-16.3-47.7-30.5-62.5-30.2l61.6-220.3" fill="none" stroke="#3c3c3b" stroke-linecap="round" stroke-linejoin="round" stroke-width="20"/>
  <path d="M408.1,167.9l209.3,209.3s51.5-25.5,65.4-35.1l-62.1-221.9c-24.5,2.4-93.3,1.9-135.7-13.6-27.6-10.1-68.6-18.6-108.2-16.4s-28.8,9.5-36.4,22.7l-43.1,74.6c-7.9,13.6-4.4,30.9,8.2,40.4h0c12,9.1,28.9,8.3,40-2l62.7-57.9,209.3,209.3c12.1,12.1,12.1,31.7,0,43.8-10.7,10.7-27.3,11.9-39.3,3.7l1.9,1.9c12.2,12.2,12.2,31.9,0,44.1l-.3.3c-12.2,12.2-31.9,12.2-44.1,0l-23.4-23.3c12.1,12.1,12.1,31.7,0,43.8-12.1,12.1-31.7,12.1-43.8,0l-11.2-11.2c12.1,12.1,12.1,31.7,0,43.8-12.1,12.1-31.7,12.1-43.8,0l-22.9-22.9" fill="none" stroke="#3c3c3b" stroke-linecap="round" stroke-linejoin="round" stroke-width="20"/>
  <line x1="578" y1="424.6" x2="503.8" y2="347.7" fill="none" stroke="#3c3c3b" stroke-linecap="round" stroke-linejoin="round" stroke-width="20"/>
  <line x1="512.2" y1="447.6" x2="464.8" y2="395" fill="none" stroke="#3c3c3b" stroke-linecap="round" stroke-linejoin="round" stroke-width="20"/>
  <line x1="457.2" y1="480.1" x2="418.4" y2="439.2" fill="none" stroke="#3c3c3b" stroke-linecap="round" stroke-linejoin="round" stroke-width="20"/>
  <polygon points="786.2 330 687.2 357.7 682.8 342.1 620.7 120.2 607.9 68.9 706.9 41.2 786.2 330" fill="none" stroke="#3c3c3b" stroke-linecap="round" stroke-linejoin="round" stroke-width="20"/>
  <polygon points="209.3 55.4 191.4 121 129.7 341.4 125.2 357.7 26.2 330 110.3 27.7 209.3 55.4" fill="none" stroke="#3c3c3b" stroke-linecap="round" stroke-linejoin="round" stroke-width="20"/>
</svg>